<svg width="133" height="28" viewBox="0 0 133 28" fill="none" xmlns="http://www.w3.org/2000/svg">
<path d="M6.31503 13.7955L3.32677 16.767L0.285156 13.7955L3.32677 10.7709L6.31503 13.7955ZM13.6256 6.52589L18.8017 11.673L21.8433 8.64841L13.6256 0.529785L5.46124 8.64841L8.50286 11.673L13.6256 6.52589ZM23.9244 10.7709L20.9361 13.7955L23.9778 16.8201L26.966 13.7955L23.9244 10.7709ZM13.6256 21.0651L8.4495 15.918L5.40788 18.9426L13.6256 27.0612L21.7899 18.9426L18.8017 15.918L13.6256 21.0651ZM13.6256 16.767L16.6672 13.7424L13.6256 10.7709L10.584 13.7955L13.6256 16.767ZM45.4292 17.0854C45.4292 15.069 44.3619 14.1139 42.7077 13.4771C43.7749 12.8934 44.6287 11.9914 44.6287 10.3464V10.2934C44.6287 8.01165 42.7611 6.52589 39.8262 6.52589H32.9959V21.0651H39.9329C43.2413 21.0651 45.4292 19.7385 45.4292 17.0854ZM41.3737 10.877C41.3737 11.9914 40.4665 12.4159 39.0791 12.4159H36.0909V9.33822H39.2926C40.6266 9.33822 41.3737 9.86885 41.3737 10.877ZM42.2275 16.6609C42.2275 17.7222 41.3737 18.2528 39.9863 18.2528H36.1442V15.069H39.8795C41.4804 15.069 42.2275 15.6527 42.2275 16.6609ZM52.1527 21.0651V6.52589H48.8977V21.0651H52.1527ZM69.4419 21.0651V6.52589H66.2402V15.4935L59.4099 6.52589H56.4217V21.0651H59.6234V11.8322L66.7205 21.0651H69.4419ZM87.2647 21.0651L80.968 6.41976H77.9798L71.6831 21.0651H74.9915L76.3256 17.7752H82.5155L83.8496 21.0651H87.2647ZM81.3949 14.9629H77.4995L79.4739 10.2403L81.3949 14.9629ZM102.633 21.0651V6.52589H99.4312V15.4935L92.6009 6.52589H89.6126V21.0651H92.8143V11.8322L99.9115 21.0651H102.633ZM119.228 18.7304L117.147 16.6609C115.973 17.7222 114.959 18.3589 113.305 18.3589C110.797 18.3589 109.036 16.2895 109.036 13.7955V13.7424C109.036 11.2485 110.797 9.2321 113.305 9.2321C114.746 9.2321 115.92 9.86885 117.041 10.877L119.122 8.54228C117.788 7.21571 116.133 6.31364 113.359 6.31364C108.876 6.31364 105.728 9.70966 105.728 13.8486V13.7955C105.728 17.9875 108.93 21.2774 113.252 21.2774C116.027 21.3304 117.734 20.3222 119.228 18.7304ZM132.942 21.0651V18.1997H124.991V15.1221H131.875V12.2567H124.991V9.28516H132.836V6.41976H121.79V20.959L132.942 21.0651Z" fill="#5E5E5E"/>
</svg>
