<svg width="264" height="250" viewBox="0 0 264 250" fill="none" xmlns="http://www.w3.org/2000/svg">
<mask id="mask0_35_5526" style="mask-type:alpha" maskUnits="userSpaceOnUse" x="0" y="0" width="264" height="250">
<rect width="264" height="250" rx="19.7843" fill="#223C8C"/>
</mask>
<g mask="url(#mask0_35_5526)">
<path d="M-132.926 91.8552C-59.7175 48.9158 185.038 -28.2046 166.946 91.8552C143.717 246.015 307.732 288.25 338 322.039" stroke="#F8F8F8" stroke-opacity="0.6" stroke-width="0.5"/>
<path d="M-144.541 111.389C-71.3328 68.4499 173.422 -8.67043 155.331 111.389C132.102 265.549 296.116 307.785 326.385 341.573" stroke="#F8F8F8" stroke-opacity="0.6" stroke-width="0.5"/>
<path d="M-156.155 130.923C-82.947 87.9836 161.808 10.8633 143.717 130.923C120.487 285.083 284.502 327.318 314.771 361.107" stroke="#F8F8F8" stroke-opacity="0.6" stroke-width="0.5"/>
<path d="M-167.771 150.457C-94.5623 107.518 150.193 30.3974 132.102 150.457C108.872 304.617 272.887 346.852 303.156 380.641" stroke="#F8F8F8" stroke-opacity="0.6" stroke-width="0.5"/>
<path d="M-179.385 169.991C-106.177 127.051 138.579 49.9311 120.487 169.991C97.2579 324.151 261.273 366.386 291.541 400.175" stroke="#F8F8F8" stroke-opacity="0.6" stroke-width="0.5"/>
<path d="M-191 189.525C-117.792 146.586 126.963 69.4653 108.872 189.525C85.6427 343.685 249.657 385.92 279.926 419.709" stroke="#F8F8F8" stroke-opacity="0.6" stroke-width="0.5"/>
<path d="M-202.926 203.355C-129.718 160.416 115.038 83.2954 96.9465 203.355C73.7169 357.515 237.732 399.75 268 433.539" stroke="#F8F8F8" stroke-opacity="0.6" stroke-width="0.5"/>
<path d="M-214.541 222.889C-141.333 179.95 103.422 102.83 85.3312 222.889C62.1017 377.049 226.116 419.285 256.385 453.073" stroke="#F8F8F8" stroke-opacity="0.6" stroke-width="0.5"/>
<path d="M-226.155 242.423C-152.947 199.484 91.8082 122.363 73.717 242.423C50.4874 396.583 214.502 438.818 244.771 472.607" stroke="#F8F8F8" stroke-opacity="0.6" stroke-width="0.5"/>
<path d="M-237.771 261.957C-164.562 219.018 80.1929 141.897 62.1017 261.957C38.8722 416.117 202.887 458.352 233.156 492.141" stroke="#F8F8F8" stroke-opacity="0.6" stroke-width="0.5"/>
<path d="M-249.385 281.491C-176.177 238.551 68.5787 161.431 50.4875 281.491C27.2579 435.651 191.273 477.886 221.541 511.675" stroke="#F8F8F8" stroke-opacity="0.6" stroke-width="0.5"/>
<path d="M-261 301.025C-187.792 258.086 56.9634 180.965 38.8722 301.025C15.6427 455.185 179.657 497.42 209.926 531.209" stroke="#F8F8F8" stroke-opacity="0.6" stroke-width="0.5"/>
</g>
</svg>
