<svg width="172" height="287" viewBox="0 0 172 287" fill="none" xmlns="http://www.w3.org/2000/svg">
<mask id="mask0_35_5986" style="mask-type:alpha" maskUnits="userSpaceOnUse" x="0" y="0" width="172" height="287">
<rect y="0.5" width="172" height="286.499" rx="19" fill="#6C7EB7"/>
</mask>
<g mask="url(#mask0_35_5986)">
<path d="M142.063 146.669C156.202 168.981 164.02 195.105 161.592 221.368C156.695 274.311 140.771 303.495 120.349 326.191C111.018 336.562 100.744 345.582 90.1209 354.908C89.1035 355.802 88.0829 356.698 87.0596 357.598C75.3584 367.893 63.3181 378.737 51.7748 392.277C34.823 412.161 15.1852 431.367 -10.5581 434.315C-100.926 444.664 -192.06 386.117 -225.834 289.554C-245.155 234.312 -229.781 177.348 -196.78 129.696C-163.776 82.0418 -113.18 43.7616 -62.1928 25.9285C-17.1143 10.1621 20.1782 18.6614 53.0828 41.9192C86.0212 65.201 114.566 103.276 142.063 146.669Z" stroke="white" stroke-opacity="0.25"/>
<path d="M121.017 154.427C135.155 176.738 142.973 202.863 140.545 229.125C135.649 282.069 119.724 311.253 99.3021 333.949C89.9707 344.319 79.6971 353.339 69.074 362.666C68.0566 363.56 67.036 364.456 66.0127 365.356C54.3115 375.651 42.2712 386.495 30.7279 400.035C13.7761 419.919 -5.86163 439.125 -31.605 442.073C-121.973 452.422 -213.107 393.875 -246.88 297.312C-266.201 242.07 -250.828 185.106 -217.827 137.454C-184.823 89.7996 -134.227 51.5194 -83.2397 33.6864C-38.1612 17.9199 -0.868655 26.4192 32.0359 49.6771C64.9744 72.9588 93.5192 111.034 121.017 154.427Z" stroke="white" stroke-opacity="0.25"/>
<path d="M99.9696 162.185C114.108 184.497 121.926 210.622 119.498 236.884C114.602 289.828 98.677 319.012 78.2553 341.708C68.9239 352.078 58.6502 361.098 48.0271 370.425C47.0097 371.318 45.9892 372.214 44.9659 373.115C33.2646 383.41 21.2244 394.254 9.68107 407.794C-7.27073 427.677 -26.9085 446.883 -52.6519 449.832C-143.02 460.181 -234.154 401.634 -267.927 305.071C-287.248 249.829 -271.875 192.865 -238.873 145.213C-205.87 97.5584 -155.274 59.2782 -104.287 41.4451C-59.208 25.6787 -21.9155 34.178 10.989 57.4358C43.9275 80.7176 72.4723 118.793 99.9696 162.185Z" stroke="white" stroke-opacity="0.25"/>
<path d="M78.9228 169.944C93.0615 192.256 100.88 218.38 98.4509 244.642C93.5549 297.586 77.6302 326.77 57.2084 349.466C47.877 359.836 37.6034 368.857 26.9802 378.183C25.9629 379.077 24.9423 379.973 23.919 380.873C12.2178 391.168 0.177485 402.012 -11.3658 415.552C-28.3176 435.436 -47.9554 454.642 -73.6988 457.59C-164.066 467.939 -255.201 409.392 -288.974 312.829C-308.295 257.587 -292.922 200.623 -259.92 152.971C-226.917 105.317 -176.321 67.0365 -125.333 49.2034C-80.2549 33.437 -42.9624 41.9363 -10.0578 65.1941C22.8806 88.4759 51.4254 126.551 78.9228 169.944Z" stroke="white" stroke-opacity="0.25"/>
<path d="M57.8759 177.702C72.0146 200.014 79.8326 226.139 77.404 252.401C72.508 305.345 56.5833 334.528 36.1615 357.224C26.8301 367.595 16.5565 376.615 5.93337 385.942C4.91598 386.835 3.8954 387.731 2.87211 388.631C-8.82911 398.927 -20.8694 409.771 -32.4127 423.31C-49.3645 443.194 -69.0023 462.4 -94.7456 465.348C-185.113 475.697 -276.248 417.151 -310.021 320.587C-329.342 265.346 -313.969 208.381 -280.967 160.729C-247.964 113.075 -197.367 74.7948 -146.38 56.9617C-101.302 41.1953 -64.0093 49.6946 -31.1047 72.9524C1.83374 96.2342 30.3785 134.309 57.8759 177.702Z" stroke="white" stroke-opacity="0.25"/>
<path d="M36.829 185.461C50.9677 207.773 58.7858 233.897 56.3571 260.16C51.4611 313.103 35.5364 342.287 15.1146 364.983C5.78323 375.354 -4.4904 384.374 -15.1135 393.7C-16.1309 394.594 -17.1515 395.49 -18.1748 396.39C-29.876 406.685 -41.9163 417.529 -53.4596 431.069C-70.4114 450.953 -90.0491 470.159 -115.793 473.107C-206.16 483.456 -297.294 424.909 -331.068 328.346C-350.389 273.104 -335.016 216.14 -302.014 168.488C-269.011 120.834 -218.414 82.5536 -167.427 64.7205C-122.349 48.9541 -85.0562 57.4534 -52.1516 80.7112C-19.2131 103.993 9.33166 142.068 36.829 185.461Z" stroke="white" stroke-opacity="0.25"/>
<path d="M15.7821 193.219C29.9208 215.53 37.7389 241.655 35.3103 267.917C30.4142 320.861 14.4895 350.045 -5.93224 372.741C-15.2636 383.111 -25.5373 392.131 -36.1604 401.458C-37.1778 402.352 -38.1983 403.248 -39.2216 404.148C-50.9229 414.443 -62.9631 425.287 -74.5064 438.827C-91.4582 458.711 -111.096 477.917 -136.839 480.865C-227.207 491.214 -318.341 432.667 -352.115 336.104C-371.436 280.862 -356.062 223.898 -323.061 176.246C-290.058 128.592 -239.461 90.3114 -188.474 72.4784C-143.396 56.7119 -106.103 65.2112 -73.1985 88.469C-40.26 111.751 -11.7152 149.826 15.7821 193.219Z" stroke="white" stroke-opacity="0.25"/>
</g>
</svg>
