<svg width="193" height="215" viewBox="0 0 193 215" fill="none" xmlns="http://www.w3.org/2000/svg">
<mask id="mask0_35_5976" style="mask-type:alpha" maskUnits="userSpaceOnUse" x="0" y="-1" width="195" height="216">
<rect x="0.5" y="-0.000976562" width="194" height="214.501" rx="19" fill="#6C7EB7"/>
</mask>
<g mask="url(#mask0_35_5976)">
<path d="M19.8732 35.2731C17.8907 61.613 23.2794 88.3447 37.7753 110.378C66.9985 154.797 94.7785 173.061 123.475 183.484C136.588 188.246 149.897 191.374 163.658 194.608C164.976 194.918 166.299 195.228 167.625 195.542C182.794 199.123 198.519 203.029 215.075 209.548C239.387 219.122 265.75 226.834 289.855 217.327C374.47 183.955 427.356 89.4228 411.741 -11.6775C402.807 -69.5148 362.447 -112.553 310.911 -139.083C259.371 -165.613 196.716 -175.596 143.333 -167.351C96.1365 -160.061 67.2244 -135.02 49.1265 -99.0186C31.0099 -62.9801 23.7288 -15.9534 19.8732 35.2731Z" stroke="white" stroke-opacity="0.25"/>
<path d="M42.0949 32.2199C40.1124 58.5598 45.5011 85.2915 59.9969 107.325C89.2202 151.744 117 170.007 145.697 180.43C158.81 185.193 172.119 188.321 185.88 191.555C187.198 191.864 188.52 192.175 189.847 192.488C205.015 196.07 220.741 199.976 237.296 206.495C261.608 216.069 287.972 223.781 312.076 214.274C396.692 180.901 449.577 86.3696 433.962 -14.7307C425.029 -72.568 384.669 -115.607 333.132 -142.136C281.593 -168.666 218.938 -178.649 165.555 -170.404C118.358 -163.115 89.4461 -138.073 71.3482 -102.072C53.2316 -66.0333 45.9505 -19.0067 42.0949 32.2199Z" stroke="white" stroke-opacity="0.25"/>
<path d="M64.3175 29.1672C62.335 55.5071 67.7238 82.2388 82.2196 104.272C111.443 148.691 139.223 166.955 167.92 177.378C181.032 182.14 194.341 185.268 208.103 188.502C209.421 188.812 210.743 189.122 212.069 189.436C227.238 193.017 242.964 196.923 259.519 203.442C283.831 213.016 310.194 220.728 334.299 211.221C418.914 177.849 471.8 83.3168 456.185 -17.7835C447.252 -75.6208 406.891 -118.659 355.355 -145.188C303.816 -171.719 241.16 -181.702 187.777 -173.457C140.581 -166.167 111.669 -141.126 93.5708 -105.125C75.4543 -69.0861 68.1732 -22.0594 64.3175 29.1672Z" stroke="white" stroke-opacity="0.25"/>
<path d="M86.5402 26.1139C84.5577 52.4538 89.9464 79.1856 104.442 101.219C133.665 145.638 161.445 163.901 190.142 174.324C203.255 179.087 216.564 182.215 230.325 185.449C231.643 185.758 232.966 186.069 234.292 186.382C249.461 189.964 265.186 193.87 281.742 200.389C306.054 209.963 332.417 217.675 356.522 208.168C441.137 174.795 494.023 80.2636 478.407 -20.8367C469.474 -78.674 429.114 -121.713 377.578 -148.242C326.038 -174.772 263.383 -184.755 210 -176.51C162.803 -169.22 133.891 -144.179 115.793 -108.178C97.6769 -72.1393 90.3958 -25.1126 86.5402 26.1139Z" stroke="white" stroke-opacity="0.25"/>
<path d="M108.763 23.0607C106.78 49.4006 112.169 76.1323 126.665 98.1657C155.888 142.585 183.668 160.848 212.365 171.271C225.478 176.034 238.786 179.161 252.548 182.395C253.866 182.705 255.188 183.016 256.515 183.329C271.683 186.911 287.409 190.817 303.964 197.336C328.276 206.909 354.64 214.621 378.744 205.115C463.359 171.742 516.245 77.2104 500.63 -23.8899C491.697 -81.7272 451.337 -124.766 399.8 -151.295C348.261 -177.825 285.606 -187.808 232.223 -179.563C185.026 -172.274 156.114 -147.232 138.016 -111.231C119.9 -75.1925 112.618 -28.1658 108.763 23.0607Z" stroke="white" stroke-opacity="0.25"/>
<path d="M130.985 20.0085C129.003 46.3484 134.392 73.0801 148.888 95.1135C178.111 139.532 205.891 157.796 234.588 168.219C247.7 172.982 261.009 176.109 274.771 179.343C276.089 179.653 277.411 179.964 278.737 180.277C293.906 183.859 309.632 187.765 326.187 194.284C350.499 203.857 376.862 211.569 400.967 202.062C485.582 168.69 538.468 74.1582 522.853 -26.9422C513.92 -84.7795 473.559 -127.818 422.023 -154.347C370.484 -180.878 307.828 -190.861 254.445 -182.616C207.249 -175.326 178.337 -150.285 160.239 -114.283C142.122 -78.2448 134.841 -31.2181 130.985 20.0085Z" stroke="white" stroke-opacity="0.25"/>
<path d="M153.208 16.9548C151.226 43.2946 156.614 70.0264 171.11 92.0598C200.333 136.479 228.113 154.742 256.81 165.165C269.923 169.928 283.232 173.055 296.993 176.29C298.311 176.599 299.633 176.91 300.96 177.223C316.129 180.805 331.854 184.711 348.41 191.23C372.722 200.803 399.085 208.516 423.19 199.009C507.805 165.636 560.691 71.1044 545.075 -29.9959C536.142 -87.8332 495.782 -130.872 444.246 -157.401C392.706 -183.931 330.051 -193.914 276.668 -185.669C229.471 -178.38 200.559 -153.338 182.461 -117.337C164.345 -81.2985 157.064 -34.2718 153.208 16.9548Z" stroke="white" stroke-opacity="0.25"/>
</g>
</svg>
