<svg width="26" height="25" viewBox="0 0 26 25" fill="none" xmlns="http://www.w3.org/2000/svg">
<path d="M18.208 13.9584V17.0834C18.208 21.2501 16.5413 22.9167 12.3747 22.9167H8.41634C4.24967 22.9167 2.58301 21.2501 2.58301 17.0834V13.1251C2.58301 8.95842 4.24967 7.29175 8.41634 7.29175H11.5413" stroke="white" stroke-width="1.5" stroke-linecap="round" stroke-linejoin="round"/>
<path d="M12.5837 2.08325H16.7503M7.79199 5.20825C7.79199 3.47909 9.18783 2.08325 10.917 2.08325H13.6462M23.417 8.33325V14.7812C23.417 16.3958 22.1045 17.7083 20.4899 17.7083M23.417 8.33325H20.292C17.9482 8.33325 17.167 7.552 17.167 5.20825V2.08325L23.417 8.33325ZM18.2087 13.9583H14.8753C12.3753 13.9583 11.542 13.1249 11.542 10.6249V7.29159L18.2087 13.9583Z" stroke="white" stroke-width="1.5" stroke-linecap="round" stroke-linejoin="round"/>
</svg>
