<svg width="25" height="25" viewBox="0 0 25 25" fill="none" xmlns="http://www.w3.org/2000/svg">
<path d="M21.7441 4.65918H3.10664C2.90068 4.65918 2.70316 4.741 2.55753 4.88663C2.41189 5.03226 2.33008 5.22979 2.33008 5.43574V18.6373C2.33008 19.0492 2.49371 19.4443 2.78498 19.7355C3.07625 20.0268 3.47129 20.1904 3.8832 20.1904H20.9676C21.3795 20.1904 21.7745 20.0268 22.0658 19.7355C22.3571 19.4443 22.5207 19.0492 22.5207 18.6373V5.43574C22.5207 5.22979 22.4389 5.03226 22.2933 4.88663C22.1476 4.741 21.9501 4.65918 21.7441 4.65918ZM12.4254 12.9247L5.10338 6.2123H19.7474L12.4254 12.9247ZM9.5822 12.4248L3.8832 17.6482V7.20145L9.5822 12.4248ZM10.7315 13.478L11.8964 14.5506C12.0396 14.6822 12.227 14.7551 12.4215 14.7551C12.616 14.7551 12.8034 14.6822 12.9467 14.5506L14.1115 13.478L19.7416 18.6373H5.10338L10.7315 13.478ZM15.2686 12.4248L20.9676 7.20048V17.6491L15.2686 12.4248Z" fill="black"/>
</svg>
