<svg width="1440" height="384" viewBox="0 0 1440 384" fill="none" xmlns="http://www.w3.org/2000/svg">
<path d="M0 217C167.252 148.2 516.442 32.68 575.184 121C633.926 209.32 1176.2 77.8 1440 1" stroke="white" stroke-width="0.5"/>
<path d="M0 285C167.252 216.2 516.442 100.68 575.184 189C633.926 277.32 1176.2 145.8 1440 69" stroke="white" stroke-width="0.5"/>
<path d="M0 353C167.252 284.2 516.442 168.68 575.184 257C633.926 345.32 1176.2 213.8 1440 137" stroke="white" stroke-width="0.5"/>
<path d="M0 247.5C167.252 178.7 516.442 63.18 575.184 151.5C633.926 239.82 1176.2 108.3 1440 31.5" stroke="white" stroke-width="0.5"/>
<path d="M0 315.5C167.252 246.7 516.442 131.18 575.184 219.5C633.926 307.82 1176.2 176.3 1440 99.5" stroke="white" stroke-width="0.5"/>
<path d="M0 383.5C167.252 314.7 516.442 199.18 575.184 287.5C633.926 375.82 1176.2 244.3 1440 167.5" stroke="white" stroke-width="0.5"/>
</svg>
