<svg width="1440" height="1357" viewBox="0 0 1440 1357" fill="none" xmlns="http://www.w3.org/2000/svg">
<path d="M794.235 0.714049C761.658 -0.699148 728.913 7.38199 699.794 24.0212L560.074 103.862C511.873 131.405 457.32 145.892 401.805 145.892H-21.2686V318.526H1461.38L1461.38 29.6549L794.235 0.714049Z" fill="#6C7EB7"/>
<path d="M627.378 1356.84C659.956 1358.25 692.7 1350.17 721.819 1333.53L861.539 1253.69C909.74 1226.15 964.294 1211.66 1019.81 1211.66H1442.88V1039.03H-39.7679L-39.7687 1327.9L627.378 1356.84Z" fill="#6C7EB7"/>
<rect x="-8" y="151" width="1480" height="1052" fill="#6C7EB7"/>
<path d="M0 317C167.252 248.2 516.442 132.68 575.184 221C633.926 309.32 1176.2 177.8 1440 101" stroke="white" stroke-width="0.5"/>
<path d="M0 385C167.252 316.2 516.442 200.68 575.184 289C633.926 377.32 1176.2 245.8 1440 169" stroke="white" stroke-width="0.5"/>
<path d="M0 453C167.252 384.2 516.442 268.68 575.184 357C633.926 445.32 1176.2 313.8 1440 237" stroke="white" stroke-width="0.5"/>
<path d="M0 347.5C167.252 278.7 516.442 163.18 575.184 251.5C633.926 339.82 1176.2 208.3 1440 131.5" stroke="white" stroke-width="0.5"/>
<path d="M0 415.5C167.252 346.7 516.442 231.18 575.184 319.5C633.926 407.82 1176.2 276.3 1440 199.5" stroke="white" stroke-width="0.5"/>
<path d="M0 483.5C167.252 414.7 516.442 299.18 575.184 387.5C633.926 475.82 1176.2 344.3 1440 267.5" stroke="white" stroke-width="0.5"/>
<path d="M1440 942C1272.75 873.2 923.558 757.68 864.816 846C806.074 934.32 263.796 802.8 5.62668e-05 726" stroke="white" stroke-width="0.5"/>
<path d="M1440 1010C1272.75 941.2 923.558 825.68 864.816 914C806.074 1002.32 263.796 870.8 5.62668e-05 794" stroke="white" stroke-width="0.5"/>
<path d="M1440 1078C1272.75 1009.2 923.558 893.68 864.816 982C806.074 1070.32 263.796 938.8 5.62668e-05 862" stroke="white" stroke-width="0.5"/>
<path d="M1440 975C1272.75 906.2 923.558 790.68 864.816 879C806.074 967.32 263.796 835.8 5.62668e-05 759" stroke="white" stroke-width="0.5"/>
<path d="M1440 1043C1272.75 974.2 923.558 858.68 864.816 947C806.074 1035.32 263.796 903.8 5.62668e-05 827" stroke="white" stroke-width="0.5"/>
<path d="M1440 1111C1272.75 1042.2 923.558 926.68 864.816 1015C806.074 1103.32 263.796 971.8 5.62668e-05 895" stroke="white" stroke-width="0.5"/>
</svg>
