<svg width="1440" height="387" viewBox="0 0 1440 387" fill="none" xmlns="http://www.w3.org/2000/svg">
<path d="M1440 217C1272.75 148.2 923.558 32.68 864.816 121C806.074 209.32 263.796 77.8 5.62668e-05 1" stroke="white" stroke-width="0.5"/>
<path d="M1440 285C1272.75 216.2 923.558 100.68 864.816 189C806.074 277.32 263.796 145.8 5.62668e-05 69" stroke="white" stroke-width="0.5"/>
<path d="M1440 353C1272.75 284.2 923.558 168.68 864.816 257C806.074 345.32 263.796 213.8 5.62668e-05 137" stroke="white" stroke-width="0.5"/>
<path d="M1440 250C1272.75 181.2 923.558 65.68 864.816 154C806.074 242.32 263.796 110.8 5.62668e-05 34" stroke="white" stroke-width="0.5"/>
<path d="M1440 318C1272.75 249.2 923.558 133.68 864.816 222C806.074 310.32 263.796 178.8 5.62668e-05 102" stroke="white" stroke-width="0.5"/>
<path d="M1440 386C1272.75 317.2 923.558 201.68 864.816 290C806.074 378.32 263.796 246.8 5.62668e-05 170" stroke="white" stroke-width="0.5"/>
</svg>
