<svg width="1440" height="1201" viewBox="0 0 1440 1201" fill="none" xmlns="http://www.w3.org/2000/svg">
<path d="M-34 234C-31.2076 109.333 105.9 -118.4 631.992 -32.0001C1158.08 54.3999 1413.87 -21.3334 1476 -70" stroke="#E8E8E8" stroke-width="0.5"/>
<path d="M-34 276C-31.2076 151.333 105.9 -76.4001 631.992 9.99989C1158.08 96.3999 1413.87 20.6666 1476 -28" stroke="#E8E8E8" stroke-width="0.5"/>
<path d="M-34 318C-31.2076 193.333 105.9 -34.4001 631.992 51.9999C1158.08 138.4 1413.87 62.6666 1476 14" stroke="#E8E8E8" stroke-width="0.5"/>
<path d="M-34 360C-31.2076 235.333 105.9 7.59989 631.992 93.9999C1158.08 180.4 1413.87 104.667 1476 56" stroke="#E8E8E8" stroke-width="0.5"/>
<path d="M-34 402C-31.2076 277.333 105.9 49.5999 631.992 136C1158.08 222.4 1413.87 146.667 1476 98" stroke="#E8E8E8" stroke-width="0.5"/>
<path d="M-34 444C-31.2076 319.333 105.9 91.5999 631.992 178C1158.08 264.4 1413.87 188.667 1476 140" stroke="#E8E8E8" stroke-width="0.5"/>
<path d="M-34 486C-31.2076 361.333 105.9 133.6 631.992 220C1158.08 306.4 1413.87 230.667 1476 182" stroke="#E8E8E8" stroke-width="0.5"/>
<path d="M-34 528C-31.2076 403.333 105.9 175.6 631.992 262C1158.08 348.4 1413.87 272.667 1476 224" stroke="#E8E8E8" stroke-width="0.5"/>
<path d="M-34 570C-31.2076 445.333 105.9 217.6 631.992 304C1158.08 390.4 1413.87 314.667 1476 266" stroke="#E8E8E8" stroke-width="0.5"/>
<path d="M-34 612C-31.2076 487.333 105.9 259.6 631.992 346C1158.08 432.4 1413.87 356.667 1476 308" stroke="#E8E8E8" stroke-width="0.5"/>
<path d="M-34 654C-31.2076 529.333 105.9 301.6 631.992 388C1158.08 474.4 1413.87 398.667 1476 350" stroke="#E8E8E8" stroke-width="0.5"/>
<path d="M-34 696C-31.2076 571.333 105.9 343.6 631.992 430C1158.08 516.4 1413.87 440.667 1476 392" stroke="#E8E8E8" stroke-width="0.5"/>
<path d="M-34 738C-31.2076 613.333 105.9 385.6 631.992 472C1158.08 558.4 1413.87 482.667 1476 434" stroke="#E8E8E8" stroke-width="0.5"/>
<path d="M-34 780C-31.2076 655.333 105.9 427.6 631.992 514C1158.08 600.4 1413.87 524.667 1476 476" stroke="#E8E8E8" stroke-width="0.5"/>
<path d="M-34 822C-31.2076 697.333 105.9 469.6 631.992 556C1158.08 642.4 1413.87 566.667 1476 518" stroke="#E8E8E8" stroke-width="0.5"/>
<path d="M-34 864C-31.2076 739.333 105.9 511.6 631.992 598C1158.08 684.4 1413.87 608.667 1476 560" stroke="#E8E8E8" stroke-width="0.5"/>
<path d="M-34 906C-31.2076 781.333 105.9 553.6 631.992 640C1158.08 726.4 1413.87 650.667 1476 602" stroke="#E8E8E8" stroke-width="0.5"/>
<path d="M-34 948C-31.2076 823.333 105.9 595.6 631.992 682C1158.08 768.4 1413.87 692.667 1476 644" stroke="#E8E8E8" stroke-width="0.5"/>
<path d="M-34 990C-31.2076 865.333 105.9 637.6 631.992 724C1158.08 810.4 1413.87 734.667 1476 686" stroke="#E8E8E8" stroke-width="0.5"/>
<path d="M-34 1032C-31.2076 907.333 105.9 679.6 631.992 766C1158.08 852.4 1413.87 776.667 1476 728" stroke="#E8E8E8" stroke-width="0.5"/>
<path d="M-34 1074C-31.2076 949.333 105.9 721.6 631.992 808C1158.08 894.4 1413.87 818.667 1476 770" stroke="#E8E8E8" stroke-width="0.5"/>
<path d="M-34 1116C-31.2076 991.333 105.9 763.6 631.992 850C1158.08 936.4 1413.87 860.667 1476 812" stroke="#E8E8E8" stroke-width="0.5"/>
<path d="M-34 1158C-31.2076 1033.33 105.9 805.6 631.992 892C1158.08 978.4 1413.87 902.667 1476 854" stroke="#E8E8E8" stroke-width="0.5"/>
<path d="M-34 1200C-31.2076 1075.33 105.9 847.6 631.992 934C1158.08 1020.4 1413.87 944.667 1476 896" stroke="#E8E8E8" stroke-width="0.5"/>
</svg>
