<svg width="26" height="26" viewBox="0 0 26 26" fill="none" xmlns="http://www.w3.org/2000/svg">
  <symbol id="envelope-icon" viewBox="0 0 25 25">
    <path d="M21.7441 4.65918H3.10664C2.90068 4.65918 2.70316 4.741 2.55753 4.88663C2.41189 5.03226 2.33008 5.22979 2.33008 5.43574V18.6373C2.33008 19.0492 2.49371 19.4443 2.78498 19.7355C3.07625 20.0268 3.47129 20.1904 3.8832 20.1904H20.9676C21.3795 20.1904 21.7745 20.0268 22.0658 19.7355C22.3571 19.4443 22.5207 19.0492 22.5207 18.6373V5.43574C22.5207 5.22979 22.4389 5.03226 22.2933 4.88663C22.1476 4.741 21.9501 4.65918 21.7441 4.65918ZM12.4254 12.9247L5.10338 6.2123H19.7474L12.4254 12.9247ZM9.5822 12.4248L3.8832 17.6482V7.20145L9.5822 12.4248ZM10.7315 13.478L11.8964 14.5506C12.0396 14.6822 12.227 14.7551 12.4215 14.7551C12.616 14.7551 12.8034 14.6822 12.9467 14.5506L14.1115 13.478L19.7416 18.6373H5.10338L10.7315 13.478ZM15.2686 12.4248L20.9676 7.20048V17.6491L15.2686 12.4248Z" fill="black"/>
  </symbol>
  
<symbol id="telegram-icon" viewBox="0 0 26 26">
  <path fill="black" d="M24.6243 3.50973C24.504 3.40585 24.3577 3.33677 24.201 3.30992C24.0444 3.28307 23.8833 3.29947 23.7353 3.35736L4.06645 11.0547C3.7877 11.1631 3.5517 11.3591 3.39399 11.6132C3.23628 11.8673 3.16539 12.1658 3.192 12.4637C3.2186 12.7616 3.34126 13.0428 3.5415 13.265C3.74175 13.4871 4.00874 13.6382 4.30229 13.6955L9.39857 14.6961V20.3786C9.39757 20.6881 9.48955 20.9908 9.6626 21.2474C9.83565 21.5041 10.0818 21.7028 10.3691 21.8179C10.656 21.9351 10.9715 21.9632 11.2746 21.8986C11.5776 21.8341 11.8543 21.6798 12.0685 21.4559L14.5259 18.9073L18.4246 22.3197C18.7058 22.5692 19.0686 22.7072 19.4446 22.7079C19.6093 22.7078 19.7731 22.6819 19.9299 22.6312C20.186 22.5499 20.4164 22.403 20.5981 22.2049C20.7798 22.0069 20.9064 21.7647 20.9654 21.5025L24.9048 4.36477C24.9401 4.21022 24.9326 4.04898 24.8832 3.89835C24.8337 3.74773 24.7443 3.61339 24.6243 3.50973ZM18.6905 7.00366L9.99545 13.2306L5.1816 12.2863L18.6905 7.00366ZM10.9514 20.3786V15.7705L13.3574 17.8804L10.9514 20.3786ZM19.4465 21.155L11.4221 14.1187L22.9715 5.84096L19.4465 21.155Z"/>
  </symbol>

<symbol id="whatsapp-icon" viewBox="0 0 26 26" width="26" height="26">
 <path d="M18.8382 15.0531L15.7325 13.5003C15.6102 13.4394 15.4741 13.4118 15.3377 13.4203C15.2014 13.4288 15.0698 13.4731 14.956 13.5488L13.5303 14.4999C12.8758 14.1402 12.3373 13.6016 11.9775 12.9471L12.9286 11.5214C13.0043 11.4077 13.0486 11.276 13.0571 11.1397C13.0656 11.0033 13.038 10.8672 12.9771 10.7449L11.4243 7.63922C11.3599 7.50924 11.2604 7.39989 11.1371 7.32355C11.0137 7.24722 10.8715 7.20696 10.7264 7.20734C9.69684 7.20734 8.7094 7.61635 7.98136 8.34439C7.25331 9.07243 6.8443 10.0599 6.8443 11.0895C6.84687 13.3538 7.74752 15.5247 9.34866 17.1258C10.9498 18.727 13.1207 19.6276 15.385 19.6302C15.8948 19.6302 16.3996 19.5298 16.8706 19.3347C17.3416 19.1396 17.7696 18.8536 18.1301 18.4931C18.4906 18.1326 18.7765 17.7047 18.9716 17.2337C19.1667 16.7627 19.2672 16.2579 19.2672 15.748C19.2673 15.6038 19.2272 15.4624 19.1514 15.3396C19.0756 15.2169 18.9672 15.1177 18.8382 15.0531ZM15.385 18.0773C13.5324 18.0753 11.7562 17.3384 10.4461 16.0284C9.13609 14.7183 8.39922 12.9421 8.39716 11.0895C8.39701 10.5509 8.58347 10.029 8.9248 9.61246C9.26614 9.19592 9.74126 8.91052 10.2693 8.80484L11.3835 11.0371L10.4353 12.4482C10.3644 12.5545 10.3209 12.6766 10.3085 12.8038C10.2962 12.9309 10.3154 13.0592 10.3644 13.1771C10.92 14.4974 11.9703 15.5477 13.2906 16.1033C13.4089 16.1545 13.5381 16.1755 13.6665 16.1643C13.795 16.1531 13.9186 16.1101 14.0263 16.0392L15.4442 15.0939L17.6764 16.2081C17.5699 16.7367 17.2833 17.2121 16.8654 17.553C16.4475 17.8939 15.9243 18.0792 15.385 18.0773ZM13.0557 3.3252C11.3131 3.32482 9.60006 3.77561 8.08334 4.6337C6.56662 5.49179 5.2979 6.72794 4.40066 8.22184C3.50343 9.71573 3.00825 11.4165 2.96332 13.1585C2.91839 14.9006 3.32524 16.6246 4.14428 18.1627L3.04272 21.4674C2.95147 21.741 2.93823 22.0346 3.00448 22.3153C3.07072 22.5961 3.21384 22.8528 3.41778 23.0567C3.62173 23.2607 3.87844 23.4038 4.15915 23.47C4.43986 23.5363 4.73347 23.523 5.00708 23.4318L8.31175 22.3302C9.66543 23.0502 11.1653 23.4524 12.6976 23.5061C14.2299 23.5599 15.7543 23.2639 17.1551 22.6405C18.5559 22.0172 19.7963 21.0829 20.7822 19.9086C21.768 18.7343 22.4733 17.3509 22.8447 15.8633C23.216 14.3757 23.2435 12.823 22.9252 11.3232C22.6069 9.82339 21.9511 8.41578 21.0075 7.20725C20.064 5.99873 18.8575 5.02103 17.4797 4.34839C16.1019 3.67574 14.589 3.32582 13.0557 3.3252ZM13.0557 21.9595C11.5543 21.9605 10.0792 21.5651 8.77955 20.8133C8.6844 20.7581 8.5786 20.7238 8.46917 20.7125C8.35975 20.7013 8.24919 20.7135 8.14482 20.7482L4.51502 21.9595L5.72528 18.3297C5.76016 18.2254 5.77249 18.1148 5.76145 18.0054C5.75041 17.896 5.71624 17.7902 5.66122 17.6949C4.71978 16.0673 4.34179 14.1744 4.5859 12.31C4.83001 10.4456 5.68257 8.71382 7.01132 7.38338C8.34008 6.05295 10.0707 5.1982 11.9349 4.95174C13.799 4.70527 15.6923 5.08087 17.3212 6.02026C18.95 6.95965 20.2234 8.41032 20.9436 10.1472C21.6639 11.8841 21.7908 13.8102 21.3047 15.6266C20.8186 17.443 19.7467 19.0483 18.2552 20.1933C16.7637 21.3383 14.9361 21.9592 13.0557 21.9595Z" fill="black"/>
  </symbol>  

<symbol id="twitter-icon" viewBox="0 0 24 24" width="26" height="26">
<path d="M1.5 19C17.5 23.4 20.6273 13.7253 20.5 8.49998C21.7109 8.16966 22.3333 7.16665 22.5 6.49998C21.7 6.89998 20.8333 6.66665 20.5 6.49998C21.7 6.09998 21.6237 4.90281 21.5 4C20.9966 4.26389 20.0648 4.91626 19 5.00001C18.2881 3.88681 16.5 3.00002 14 4C11.5 4.99999 11 7.66667 11.5 9.00001C8.3 9.00001 4.5 5.66667 3 4C1.20231 6.56512 3.47661 9.10949 4.5 10C3.81775 10.204 3 10 2.5 9.50001C2.5 12.3551 5 13.5 6 14H4C4 16 6.33333 16.8333 7.5 17C6.7 17.8 3.16667 18.6667 1.5 19Z" stroke="black" stroke-width="2" stroke-linecap="round" stroke-linejoin="round"/>
</symbol>  


</svg>