<svg width="360" height="1130" viewBox="0 0 360 1130" fill="none" xmlns="http://www.w3.org/2000/svg">
<path d="M-34 163.5C-31.2076 38.8332 105.9 -188.9 631.992 -102.5C1158.08 -16.1001 1413.87 -91.8334 1476 -140.5" stroke="#E8E8E8" stroke-width="0.5"/>
<path d="M-34 205.5C-31.2076 80.8332 105.9 -146.9 631.992 -60.5001C1158.08 25.8999 1413.87 -49.8334 1476 -98.5" stroke="#E8E8E8" stroke-width="0.5"/>
<path d="M-34 247.5C-31.2076 122.833 105.9 -104.9 631.992 -18.5001C1158.08 67.8999 1413.87 -7.83337 1476 -56.5" stroke="#E8E8E8" stroke-width="0.5"/>
<path d="M-34 289.5C-31.2076 164.833 105.9 -62.9001 631.992 23.4999C1158.08 109.9 1413.87 34.1666 1476 -14.5" stroke="#E8E8E8" stroke-width="0.5"/>
<path d="M-34 331.5C-31.2076 206.833 105.9 -20.9001 631.992 65.4999C1158.08 151.9 1413.87 76.1666 1476 27.5" stroke="#E8E8E8" stroke-width="0.5"/>
<path d="M-34 373.5C-31.2076 248.833 105.9 21.0999 631.992 107.5C1158.08 193.9 1413.87 118.167 1476 69.5" stroke="#E8E8E8" stroke-width="0.5"/>
<path d="M-34 415.5C-31.2076 290.833 105.9 63.0999 631.992 149.5C1158.08 235.9 1413.87 160.167 1476 111.5" stroke="#E8E8E8" stroke-width="0.5"/>
<path d="M-34 457.5C-31.2076 332.833 105.9 105.1 631.992 191.5C1158.08 277.9 1413.87 202.167 1476 153.5" stroke="#E8E8E8" stroke-width="0.5"/>
<path d="M-34 499.5C-31.2076 374.833 105.9 147.1 631.992 233.5C1158.08 319.9 1413.87 244.167 1476 195.5" stroke="#E8E8E8" stroke-width="0.5"/>
<path d="M-34 541.5C-31.2076 416.833 105.9 189.1 631.992 275.5C1158.08 361.9 1413.87 286.167 1476 237.5" stroke="#E8E8E8" stroke-width="0.5"/>
<path d="M-34 583.5C-31.2076 458.833 105.9 231.1 631.992 317.5C1158.08 403.9 1413.87 328.167 1476 279.5" stroke="#E8E8E8" stroke-width="0.5"/>
<path d="M-34 625.5C-31.2076 500.833 105.9 273.1 631.992 359.5C1158.08 445.9 1413.87 370.167 1476 321.5" stroke="#E8E8E8" stroke-width="0.5"/>
<path d="M-34 667.5C-31.2076 542.833 105.9 315.1 631.992 401.5C1158.08 487.9 1413.87 412.167 1476 363.5" stroke="#E8E8E8" stroke-width="0.5"/>
<path d="M-34 709.5C-31.2076 584.833 105.9 357.1 631.992 443.5C1158.08 529.9 1413.87 454.167 1476 405.5" stroke="#E8E8E8" stroke-width="0.5"/>
<path d="M-34 751.5C-31.2076 626.833 105.9 399.1 631.992 485.5C1158.08 571.9 1413.87 496.167 1476 447.5" stroke="#E8E8E8" stroke-width="0.5"/>
<path d="M-34 793.5C-31.2076 668.833 105.9 441.1 631.992 527.5C1158.08 613.9 1413.87 538.167 1476 489.5" stroke="#E8E8E8" stroke-width="0.5"/>
<path d="M-34 835.5C-31.2076 710.833 105.9 483.1 631.992 569.5C1158.08 655.9 1413.87 580.167 1476 531.5" stroke="#E8E8E8" stroke-width="0.5"/>
<path d="M-34 877.5C-31.2076 752.833 105.9 525.1 631.992 611.5C1158.08 697.9 1413.87 622.167 1476 573.5" stroke="#E8E8E8" stroke-width="0.5"/>
<path d="M-34 919.5C-31.2076 794.833 105.9 567.1 631.992 653.5C1158.08 739.9 1413.87 664.167 1476 615.5" stroke="#E8E8E8" stroke-width="0.5"/>
<path d="M-34 961.5C-31.2076 836.833 105.9 609.1 631.992 695.5C1158.08 781.9 1413.87 706.167 1476 657.5" stroke="#E8E8E8" stroke-width="0.5"/>
<path d="M-34 1003.5C-31.2076 878.833 105.9 651.1 631.992 737.5C1158.08 823.9 1413.87 748.167 1476 699.5" stroke="#E8E8E8" stroke-width="0.5"/>
<path d="M-34 1045.5C-31.2076 920.833 105.9 693.1 631.992 779.5C1158.08 865.9 1413.87 790.167 1476 741.5" stroke="#E8E8E8" stroke-width="0.5"/>
<path d="M-34 1087.5C-31.2076 962.833 105.9 735.1 631.992 821.5C1158.08 907.9 1413.87 832.167 1476 783.5" stroke="#E8E8E8" stroke-width="0.5"/>
<path d="M-34 1129.5C-31.2076 1004.83 105.9 777.1 631.992 863.5C1158.08 949.9 1413.87 874.167 1476 825.5" stroke="#E8E8E8" stroke-width="0.5"/>
</svg>
