<svg width="360" height="1336" viewBox="0 0 360 1336" fill="none" xmlns="http://www.w3.org/2000/svg">
<path d="M-328 801C-103.375 738.666 351.05 659.2 371.75 840C392.45 1020.8 897.875 891.333 1148 804" stroke="#DCDCDC" stroke-width="0.5"/>
<path d="M-328 823.4C-103.375 761.067 351.05 681.6 371.75 862.4C392.45 1043.2 897.875 913.733 1148 826.4" stroke="#DCDCDC" stroke-width="0.5"/>
<path d="M-328 845.801C-103.375 783.468 351.05 704.001 371.75 884.801C392.45 1065.6 897.875 936.134 1148 848.801" stroke="#DCDCDC" stroke-width="0.5"/>
<path d="M-328 868.202C-103.375 805.868 351.05 726.402 371.75 907.202C392.45 1088 897.875 958.535 1148 871.202" stroke="#DCDCDC" stroke-width="0.5"/>
<path d="M-328 890.602C-103.375 828.269 351.05 748.802 371.75 929.602C392.45 1110.4 897.875 980.936 1148 893.602" stroke="#DCDCDC" stroke-width="0.5"/>
<path d="M-328 913.003C-103.375 850.669 351.05 771.203 371.75 952.003C392.45 1132.8 897.875 1003.34 1148 916.003" stroke="#DCDCDC" stroke-width="0.5"/>
<path d="M-328 935.403C-103.375 873.07 351.05 793.603 371.75 974.403C392.45 1155.2 897.875 1025.74 1148 938.404" stroke="#DCDCDC" stroke-width="0.5"/>
<path d="M-328 957.804C-103.375 895.471 351.05 816.004 371.75 996.804C392.45 1177.6 897.875 1048.14 1148 960.804" stroke="#DCDCDC" stroke-width="0.5"/>
<path d="M-328 980.205C-103.375 917.871 351.05 838.405 371.75 1019.2C392.45 1200 897.875 1070.54 1148 983.205" stroke="#DCDCDC" stroke-width="0.5"/>
<path d="M-328 1002.61C-103.375 940.272 351.05 860.805 371.75 1041.61C392.45 1222.41 897.875 1092.94 1148 1005.61" stroke="#DCDCDC" stroke-width="0.5"/>
<path d="M-328 1025.01C-103.375 962.673 351.05 883.206 371.75 1064.01C392.45 1244.81 897.875 1115.34 1148 1028.01" stroke="#DCDCDC" stroke-width="0.5"/>
<path d="M-328 1047.41C-103.375 985.074 351.05 905.607 371.75 1086.41C392.45 1267.21 897.875 1137.74 1148 1050.41" stroke="#DCDCDC" stroke-width="0.5"/>
<path d="M-328 1069.81C-103.375 1007.47 351.05 928.007 371.75 1108.81C392.45 1289.61 897.875 1160.14 1148 1072.81" stroke="#DCDCDC" stroke-width="0.5"/>
<path d="M-328 1092.21C-103.375 1029.87 351.05 950.408 371.75 1131.21C392.45 1312.01 897.875 1182.54 1148 1095.21" stroke="#DCDCDC" stroke-width="0.5"/>
<path d="M-328 1114.61C-103.375 1052.28 351.05 972.809 371.75 1153.61C392.45 1334.41 897.875 1204.94 1148 1117.61" stroke="#DCDCDC" stroke-width="0.5"/>
<path d="M-328 1137.01C-103.375 1074.68 351.05 995.209 371.75 1176.01C392.45 1356.81 897.875 1227.34 1148 1140.01" stroke="#DCDCDC" stroke-width="0.5"/>
<path d="M-328 1159.41C-103.375 1097.08 351.05 1017.61 371.75 1198.41C392.45 1379.21 897.875 1249.74 1148 1162.41" stroke="#DCDCDC" stroke-width="0.5"/>
<path d="M-328 1181.81C-103.375 1119.48 351.05 1040.01 371.75 1220.81C392.45 1401.61 897.875 1272.14 1148 1184.81" stroke="#DCDCDC" stroke-width="0.5"/>
<path d="M-328 1204.21C-103.375 1141.88 351.05 1062.41 371.75 1243.21C392.45 1424.01 897.875 1294.54 1148 1207.21" stroke="#DCDCDC" stroke-width="0.5"/>
<path d="M-328 1226.61C-103.375 1164.28 351.05 1084.81 371.75 1265.61C392.45 1446.41 897.875 1316.95 1148 1229.61" stroke="#DCDCDC" stroke-width="0.5"/>
<path d="M-328 1249.01C-103.375 1186.68 351.05 1107.21 371.75 1288.01C392.45 1468.81 897.875 1339.35 1148 1252.01" stroke="#DCDCDC" stroke-width="0.5"/>
<path d="M-328 1271.41C-103.375 1209.08 351.05 1129.61 371.75 1310.41C392.45 1491.21 897.875 1361.75 1148 1274.41" stroke="#DCDCDC" stroke-width="0.5"/>
<path d="M-328 1293.81C-103.375 1231.48 351.05 1152.01 371.75 1332.81C392.45 1513.61 897.875 1384.15 1148 1296.81" stroke="#DCDCDC" stroke-width="0.5"/>
<path d="M-328 1316.21C-103.375 1253.88 351.05 1174.41 371.75 1355.21C392.45 1536.01 897.875 1406.55 1148 1319.21" stroke="#DCDCDC" stroke-width="0.5"/>
<path d="M-328 1338.61C-103.375 1276.28 351.05 1196.81 371.75 1377.61C392.45 1558.41 897.875 1428.95 1148 1341.61" stroke="#DCDCDC" stroke-width="0.5"/>
<path d="M-328 1361.02C-103.375 1298.68 351.05 1219.22 371.75 1400.02C392.45 1580.82 897.875 1451.35 1148 1364.02" stroke="#DCDCDC" stroke-width="0.5"/>
<path d="M-328 1383.42C-103.375 1321.08 351.05 1241.62 371.75 1422.42C392.45 1603.22 897.875 1473.75 1148 1386.42" stroke="#DCDCDC" stroke-width="0.5"/>
<path d="M-328 1405.82C-103.375 1343.48 351.05 1264.02 371.75 1444.82C392.45 1625.62 897.875 1496.15 1148 1408.82" stroke="#DCDCDC" stroke-width="0.5"/>
<path d="M-326 -27.0001C-101.375 -89.3334 353.05 -168.8 373.75 11.9999C394.45 192.8 899.875 63.3333 1150 -24" stroke="#DCDCDC" stroke-width="0.5"/>
<path d="M-326 -4.59946C-101.375 -66.9328 353.05 -146.399 373.75 34.4005C394.45 215.201 899.875 85.7339 1150 -1.59937" stroke="#DCDCDC" stroke-width="0.5"/>
<path d="M-326 17.8012C-101.375 -44.5322 353.05 -123.999 373.75 56.8012C394.45 237.601 899.875 108.135 1150 20.8013" stroke="#DCDCDC" stroke-width="0.5"/>
<path d="M-326 40.2018C-101.375 -22.1315 353.05 -101.598 373.75 79.2018C394.45 260.002 899.875 130.535 1150 43.2019" stroke="#DCDCDC" stroke-width="0.5"/>
<path d="M-326 62.6024C-101.375 0.269108 353.05 -79.1976 373.75 101.602C394.45 282.402 899.875 152.936 1150 65.6025" stroke="#DCDCDC" stroke-width="0.5"/>
<path d="M-326 85.0031C-101.375 22.6697 353.05 -56.7969 373.75 124.003C394.45 304.803 899.875 175.336 1150 88.0032" stroke="#DCDCDC" stroke-width="0.5"/>
<path d="M-326 107.404C-101.375 45.0704 353.05 -34.3963 373.75 146.404C394.45 327.204 899.875 197.737 1150 110.404" stroke="#DCDCDC" stroke-width="0.5"/>
<path d="M-326 129.804C-101.375 67.471 353.05 -11.9957 373.75 168.804C394.45 349.604 899.875 220.138 1150 132.804" stroke="#DCDCDC" stroke-width="0.5"/>
<path d="M-326 152.205C-101.375 89.8716 353.05 10.405 373.75 191.205C394.45 372.005 899.875 242.538 1150 155.205" stroke="#DCDCDC" stroke-width="0.5"/>
<path d="M-326 174.606C-101.375 112.272 353.05 32.8056 373.75 213.606C394.45 394.406 899.875 264.939 1150 177.606" stroke="#DCDCDC" stroke-width="0.5"/>
<path d="M-326 197.006C-101.375 134.673 353.05 55.2062 373.75 236.006C394.45 416.806 899.875 287.34 1150 200.006" stroke="#DCDCDC" stroke-width="0.5"/>
<path d="M-326 219.407C-101.375 157.074 353.05 77.6069 373.75 258.407C394.45 439.207 899.875 309.74 1150 222.407" stroke="#DCDCDC" stroke-width="0.5"/>
<path d="M-326 241.808C-101.375 179.474 353.05 100.008 373.75 280.808C394.45 461.608 899.875 332.141 1150 244.808" stroke="#DCDCDC" stroke-width="0.5"/>
<path d="M-326 264.208C-101.375 201.875 353.05 122.408 373.75 303.208C394.45 484.008 899.875 354.542 1150 267.208" stroke="#DCDCDC" stroke-width="0.5"/>
<path d="M-326 286.609C-101.375 224.275 353.05 144.809 373.75 325.609C394.45 506.409 899.875 376.942 1150 289.609" stroke="#DCDCDC" stroke-width="0.5"/>
<path d="M-326 309.009C-101.375 246.676 353.05 167.209 373.75 348.009C394.45 528.809 899.875 399.343 1150 312.01" stroke="#DCDCDC" stroke-width="0.5"/>
<path d="M-326 331.41C-101.375 269.077 353.05 189.61 373.75 370.41C394.45 551.21 899.875 421.743 1150 334.41" stroke="#DCDCDC" stroke-width="0.5"/>
<path d="M-326 353.811C-101.375 291.477 353.05 212.011 373.75 392.811C394.45 573.611 899.875 444.144 1150 356.811" stroke="#DCDCDC" stroke-width="0.5"/>
<path d="M-326 376.211C-101.375 313.878 353.05 234.411 373.75 415.211C394.45 596.011 899.875 466.545 1150 379.211" stroke="#DCDCDC" stroke-width="0.5"/>
<path d="M-326 398.612C-101.375 336.279 353.05 256.812 373.75 437.612C394.45 618.412 899.875 488.945 1150 401.612" stroke="#DCDCDC" stroke-width="0.5"/>
<path d="M-326 421.013C-101.375 358.679 353.05 279.213 373.75 460.013C394.45 640.813 899.875 511.346 1150 424.013" stroke="#DCDCDC" stroke-width="0.5"/>
<path d="M-326 443.413C-101.375 381.08 353.05 301.613 373.75 482.413C394.45 663.213 899.875 533.747 1150 446.413" stroke="#DCDCDC" stroke-width="0.5"/>
<path d="M-326 465.814C-101.375 403.481 353.05 324.014 373.75 504.814C394.45 685.614 899.875 556.147 1150 468.814" stroke="#DCDCDC" stroke-width="0.5"/>
<path d="M-326 488.215C-101.375 425.881 353.05 346.414 373.75 527.215C394.45 708.015 899.875 578.548 1150 491.215" stroke="#DCDCDC" stroke-width="0.5"/>
<path d="M-326 510.615C-101.375 448.282 353.05 368.815 373.75 549.615C394.45 730.415 899.875 600.949 1150 513.615" stroke="#DCDCDC" stroke-width="0.5"/>
<path d="M-326 533.016C-101.375 470.682 353.05 391.216 373.75 572.016C394.45 752.816 899.875 623.349 1150 536.016" stroke="#DCDCDC" stroke-width="0.5"/>
<path d="M-326 555.417C-101.375 493.083 353.05 413.617 373.75 594.417C394.45 775.217 899.875 645.75 1150 558.417" stroke="#DCDCDC" stroke-width="0.5"/>
<path d="M-326 577.817C-101.375 515.484 353.05 436.017 373.75 616.817C394.45 797.617 899.875 668.15 1150 580.817" stroke="#DCDCDC" stroke-width="0.5"/>
<path d="M-326 600.218C-101.375 537.884 353.05 458.418 373.75 639.218C394.45 820.018 899.875 690.551 1150 603.218" stroke="#DCDCDC" stroke-width="0.5"/>
<path d="M-326 622.618C-101.375 560.285 353.05 480.818 373.75 661.618C394.45 842.418 899.875 712.952 1150 625.618" stroke="#DCDCDC" stroke-width="0.5"/>
<path d="M-326 645.019C-101.375 582.686 353.05 503.219 373.75 684.019C394.45 864.819 899.875 735.352 1150 648.019" stroke="#DCDCDC" stroke-width="0.5"/>
<path d="M-326 667.42C-101.375 605.086 353.05 525.62 373.75 706.42C394.45 887.22 899.875 757.753 1150 670.42" stroke="#DCDCDC" stroke-width="0.5"/>
<path d="M-326 689.82C-101.375 627.487 353.05 548.02 373.75 728.82C394.45 909.62 899.875 780.154 1150 692.821" stroke="#DCDCDC" stroke-width="0.5"/>
<path d="M-326 712.221C-101.375 649.888 353.05 570.421 373.75 751.221C394.45 932.021 899.875 802.554 1150 715.221" stroke="#DCDCDC" stroke-width="0.5"/>
<path d="M-326 734.622C-101.375 672.288 353.05 592.822 373.75 773.622C394.45 954.422 899.875 824.955 1150 737.622" stroke="#DCDCDC" stroke-width="0.5"/>
<path d="M-326 757.022C-101.375 694.689 353.05 615.222 373.75 796.022C394.45 976.822 899.875 847.356 1150 760.022" stroke="#DCDCDC" stroke-width="0.5"/>
<path d="M-326 779.423C-101.375 717.089 353.05 637.623 373.75 818.423C394.45 999.223 899.875 869.756 1150 782.423" stroke="#DCDCDC" stroke-width="0.5"/>
</svg>
