<svg width="280" height="272" viewBox="0 0 280 272" fill="none" xmlns="http://www.w3.org/2000/svg">
<mask id="mask0_35_5550" style="mask-type:alpha" maskUnits="userSpaceOnUse" x="0" y="0" width="280" height="272">
<rect width="280" height="272" rx="19.7843" transform="matrix(-1 0 0 1 280 0)" fill="#223C8C"/>
</mask>
<g mask="url(#mask0_35_5550)">
<path d="M428.582 91.8552C355.543 48.9158 111.355 -28.2046 129.404 91.8552C152.58 246.015 -11.0553 288.25 -41.254 322.039" stroke="#F8F8F8" stroke-opacity="0.6" stroke-width="0.5"/>
<path d="M440.174 111.389C367.135 68.4499 122.946 -8.67043 140.996 111.389C164.171 265.549 0.53652 307.785 -29.6622 341.573" stroke="#F8F8F8" stroke-opacity="0.6" stroke-width="0.5"/>
<path d="M451.761 130.923C378.722 87.9836 134.533 10.8633 152.583 130.923C175.758 285.083 12.1234 327.318 -18.0753 361.107" stroke="#F8F8F8" stroke-opacity="0.6" stroke-width="0.5"/>
<path d="M463.349 150.457C390.31 107.518 146.121 30.3974 164.171 150.457C187.346 304.617 23.7113 346.852 -6.4874 380.641" stroke="#F8F8F8" stroke-opacity="0.6" stroke-width="0.5"/>
<path d="M474.936 169.991C401.897 127.051 157.708 49.9311 175.757 169.991C198.933 324.151 35.2982 366.386 5.09951 400.175" stroke="#F8F8F8" stroke-opacity="0.6" stroke-width="0.5"/>
<path d="M486.523 189.525C413.485 146.586 169.296 69.4653 187.345 189.525C210.521 343.685 46.8861 385.92 16.6874 419.709" stroke="#F8F8F8" stroke-opacity="0.6" stroke-width="0.5"/>
<path d="M498.418 203.355C425.379 160.416 181.191 83.2954 199.24 203.355C222.416 357.515 58.7807 399.75 28.5819 433.539" stroke="#F8F8F8" stroke-opacity="0.6" stroke-width="0.5"/>
<path d="M510.006 222.889C436.967 179.95 192.778 102.83 210.828 222.889C234.004 377.049 70.3686 419.285 40.1698 453.073" stroke="#F8F8F8" stroke-opacity="0.6" stroke-width="0.5"/>
<path d="M521.594 242.423C448.555 199.484 204.366 122.363 222.416 242.423C245.591 396.583 81.9564 438.818 51.7577 472.607" stroke="#F8F8F8" stroke-opacity="0.6" stroke-width="0.5"/>
<path d="M533.185 261.957C460.146 219.018 215.957 141.897 234.006 261.957C257.182 416.117 93.5473 458.352 63.3485 492.141" stroke="#F8F8F8" stroke-opacity="0.6" stroke-width="0.5"/>
<path d="M544.771 281.491C471.733 238.551 227.544 161.431 245.593 281.491C268.769 435.651 105.134 477.886 74.9354 511.675" stroke="#F8F8F8" stroke-opacity="0.6" stroke-width="0.5"/>
<path d="M556.359 301.025C483.321 258.086 239.132 180.965 257.181 301.025C280.357 455.185 116.722 497.42 86.5233 531.209" stroke="#F8F8F8" stroke-opacity="0.6" stroke-width="0.5"/>
</g>
</svg>
