<svg width="209" height="176" viewBox="0 0 209 176" fill="none" xmlns="http://www.w3.org/2000/svg">
<path d="M209 120.782C209 177.924 157.267 189.069 103.465 149.752C62.0792 178.723 0 194.479 0 137.336C0 80.1941 93.9171 0.762207 151.059 0.762207C208.202 0.762207 171.752 58.7028 209 120.782Z" fill="#0D1165"/>
<mask id="mask0_112_2196" style="mask-type:alpha" maskUnits="userSpaceOnUse" x="0" y="0" width="209" height="176">
<path d="M209 120.782C209 177.924 157.267 189.069 103.465 149.752C62.0792 178.723 0 194.479 0 137.336C0 80.1941 93.9171 0.762207 151.059 0.762207C208.202 0.762207 171.752 58.7028 209 120.782Z" fill="#0D1165"/>
</mask>
<g mask="url(#mask0_112_2196)">
<path d="M88.5399 245.677C126.262 244.47 205.07 223.038 218.529 146.964C231.988 70.8908 286.33 74.7578 311.819 86.2005" stroke="#C9C9C9" stroke-width="0.5"/>
<path d="M77.991 236.301C115.713 235.094 194.521 213.662 207.98 137.588C221.439 61.5143 275.781 65.3813 301.27 76.824" stroke="#C9C9C9" stroke-width="0.5"/>
<path d="M67.4422 226.924C105.164 225.717 183.972 204.285 197.431 128.212C210.89 52.1379 265.232 56.0048 290.721 67.4475" stroke="#C9C9C9" stroke-width="0.5"/>
<path d="M56.8934 217.547C94.6151 216.34 173.423 194.908 186.882 118.835C200.341 42.7609 254.684 46.6279 280.172 58.0706" stroke="#C9C9C9" stroke-width="0.5"/>
<path d="M46.3445 208.17C84.0663 206.963 162.875 185.531 176.334 109.457C189.793 33.3835 244.135 37.2504 269.623 48.6931" stroke="#C9C9C9" stroke-width="0.5"/>
<path d="M35.7967 198.793C73.5184 197.586 152.327 176.154 165.786 100.081C179.245 24.007 233.587 27.874 259.076 39.3167" stroke="#C9C9C9" stroke-width="0.5"/>
<path d="M25.2479 189.417C62.9696 188.21 141.778 166.778 155.237 90.7042C168.696 14.6305 223.038 18.4975 248.527 29.9402" stroke="#C9C9C9" stroke-width="0.5"/>
<path d="M14.699 180.04C52.4208 178.833 131.229 157.401 144.688 81.3277C158.147 5.25408 212.489 9.12105 237.978 20.5637" stroke="#C9C9C9" stroke-width="0.5"/>
<path d="M4.15021 170.664C41.872 169.457 120.68 148.025 134.139 71.9513C147.598 -4.12239 201.94 -0.255413 227.429 11.1873" stroke="#C9C9C9" stroke-width="0.5"/>
<path d="M-6.39764 161.287C31.3241 160.08 110.132 138.648 123.591 62.5743C137.05 -13.4993 191.393 -9.63237 216.881 1.81032" stroke="#C9C9C9" stroke-width="0.5"/>
<path d="M-16.9465 151.91C20.7753 150.704 99.5835 129.271 113.043 53.1978C126.502 -22.8758 180.844 -19.0088 206.332 -7.56614" stroke="#C9C9C9" stroke-width="0.5"/>
<path d="M-27.4953 142.534C10.2265 141.327 89.0347 119.895 102.494 43.8214C115.953 -32.2523 170.295 -28.3853 195.784 -16.9426" stroke="#C9C9C9" stroke-width="0.5"/>
<path d="M-38.0461 133.158C-0.324325 131.951 78.4839 110.519 91.9429 34.4449C105.402 -41.6287 159.744 -37.7618 185.233 -26.3191" stroke="#C9C9C9" stroke-width="0.5"/>
<path d="M-48.5949 123.781C-10.8732 122.574 67.9351 101.142 81.3941 25.0684C94.8531 -51.0052 149.195 -47.1382 174.684 -35.6955" stroke="#C9C9C9" stroke-width="0.5"/>
<path d="M-59.1428 114.405C-21.421 113.198 57.3872 91.7656 70.8463 15.692C84.3053 -60.3817 138.647 -56.5147 164.136 -45.072" stroke="#C9C9C9" stroke-width="0.5"/>
</g>
</svg>
