<svg width="78" height="27" viewBox="0 0 78 27" fill="none" xmlns="http://www.w3.org/2000/svg">
<path d="M70.1561 11.1866C71.0837 11.1866 71.8356 10.4353 71.8356 9.50857C71.8356 8.58183 71.0837 7.83057 70.1561 7.83057C69.2285 7.83057 68.4766 8.58183 68.4766 9.50857C68.4766 10.4353 69.2285 11.1866 70.1561 11.1866Z" fill="#5E5E5E"/>
<path d="M46.1667 16.6642C46.9906 16.6642 47.466 16.0468 47.4343 15.4453C47.4184 15.1287 47.3868 14.9229 47.3551 14.7646C46.848 12.58 45.0734 10.9653 42.9661 10.9653C40.4627 10.9653 38.4346 13.2291 38.4346 16.0152C38.4346 18.8013 40.4627 21.065 42.9661 21.065C44.5347 21.065 45.6597 20.4951 46.4678 19.5928C46.8639 19.1496 46.7847 18.4689 46.3093 18.1364C45.9132 17.8673 45.422 17.9623 45.0576 18.2631C44.709 18.5638 44.0435 19.1654 42.9661 19.1654C41.6985 19.1654 40.6211 18.0731 40.3835 16.6325H46.1667V16.6642ZM42.9503 12.8808C44.0911 12.8808 45.0734 13.7673 45.4379 14.9862H40.4627C40.8271 13.7515 41.8095 12.8808 42.9503 12.8808Z" fill="#5E5E5E"/>
<path d="M38.5301 11.9619C38.5301 11.487 38.1815 11.1071 37.7378 11.0279C36.3594 10.8221 35.0601 11.3287 34.3154 12.2627V12.136C34.3154 11.5503 33.8401 11.1862 33.3647 11.1862C32.8419 11.1862 32.4141 11.6136 32.4141 12.136V19.8928C32.4141 20.3994 32.7943 20.8426 33.3014 20.8743C33.8559 20.906 34.3154 20.4785 34.3154 19.9245V15.9194C34.3154 14.1465 35.6464 12.6901 37.4843 12.8959C37.5477 12.8959 37.6111 12.8959 37.6745 12.8959C38.1498 12.8642 38.5301 12.4526 38.5301 11.9619Z" fill="#5E5E5E"/>
<path d="M71.1064 12.9752C71.1064 12.4528 70.6786 12.0254 70.1558 12.0254C69.6329 12.0254 69.2051 12.4528 69.2051 12.9752C69.2051 13.0069 69.2051 19.6239 69.2051 19.9247C69.2051 20.4471 69.6329 20.8745 70.1558 20.8745C70.6786 20.8745 71.1064 20.4471 71.1064 19.9247C71.1064 19.6397 71.1064 13.0227 71.1064 12.9752Z" fill="#5E5E5E"/>
<path d="M56.9733 7.71983C56.9733 7.19744 56.5455 6.77002 56.0227 6.77002C55.4998 6.77002 55.072 7.19744 55.072 7.71983V11.9465C54.4224 11.2975 53.6143 10.9809 52.6478 10.9809C50.1443 10.9809 48.1162 13.2446 48.1162 16.0307C48.1162 18.8168 50.1443 21.0805 52.6478 21.0805C53.6143 21.0805 54.4382 20.7481 55.0878 20.0991C55.167 20.5423 55.5632 20.8747 56.0227 20.8747C56.5455 20.8747 56.9733 20.4473 56.9733 19.9249V7.71983ZM52.6636 19.1967C51.2059 19.1967 50.0334 17.7878 50.0334 16.0307C50.0334 14.2894 51.2059 12.8647 52.6636 12.8647C54.1213 12.8647 55.2938 14.2735 55.2938 16.0307C55.2938 17.7878 54.1055 19.1967 52.6636 19.1967Z" fill="#5E5E5E"/>
<path d="M66.8923 7.71983C66.8923 7.19744 66.4645 6.77002 65.9416 6.77002C65.4187 6.77002 64.9909 7.19744 64.9909 7.71983V11.9465C64.3413 11.2975 63.5332 10.9809 62.5667 10.9809C60.0633 10.9809 58.0352 13.2446 58.0352 16.0307C58.0352 18.8168 60.0633 21.0805 62.5667 21.0805C63.5332 21.0805 64.3571 20.7481 65.0068 20.0991C65.086 20.5423 65.4821 20.8747 65.9416 20.8747C66.4645 20.8747 66.8923 20.4473 66.8923 19.9249V7.71983ZM62.5667 19.1967C61.109 19.1967 59.9365 17.7878 59.9365 16.0307C59.9365 14.2894 61.109 12.8647 62.5667 12.8647C64.0244 12.8647 65.1969 14.2735 65.1969 16.0307C65.1969 17.7878 64.0244 19.1967 62.5667 19.1967Z" fill="#5E5E5E"/>
<path d="M75.9233 19.941V12.8807H76.763C77.2067 12.8807 77.6028 12.5483 77.6345 12.0892C77.6662 11.5985 77.27 11.1869 76.7947 11.1869H75.9233V9.85715C75.9233 9.35058 75.543 8.90734 75.036 8.87567C74.4814 8.84401 74.0219 9.27143 74.0219 9.82549V11.2027H73.2297C72.786 11.2027 72.3899 11.5352 72.3582 11.9942C72.3265 12.485 72.7226 12.8966 73.198 12.8966H74.0061V19.9568C74.0061 20.4792 74.4339 20.9066 74.9567 20.9066C75.5113 20.875 75.9233 20.4634 75.9233 19.941Z" fill="#5E5E5E"/>
<path d="M13.8129 26.9055C21.146 26.9055 27.0907 20.9662 27.0907 13.6397C27.0907 6.31329 21.146 0.374023 13.8129 0.374023C6.47981 0.374023 0.535156 6.31329 0.535156 13.6397C0.535156 20.9662 6.47981 26.9055 13.8129 26.9055Z" fill="#5E5E5E"/>
<path d="M22.6698 13.64C22.6698 12.5635 21.7984 11.7087 20.7368 11.7087C20.2139 11.7087 19.7386 11.9145 19.39 12.2469C18.0591 11.2971 16.237 10.6797 14.2088 10.6006L15.0961 6.45305L17.9799 7.07043C18.0115 7.79862 18.6136 8.38434 19.3583 8.38434C20.1189 8.38434 20.7368 7.76696 20.7368 7.00711C20.7368 6.24726 20.1189 5.62988 19.3583 5.62988C18.8196 5.62988 18.3443 5.94649 18.1225 6.40556L14.906 5.72487C14.8109 5.70903 14.7159 5.72486 14.6525 5.77235C14.5733 5.81985 14.5257 5.899 14.5099 5.99398L13.5275 10.6164C11.4677 10.6797 9.61392 11.2971 8.26713 12.2627C7.91855 11.9303 7.44321 11.7245 6.92034 11.7245C5.84291 11.7245 4.9873 12.5952 4.9873 13.6558C4.9873 14.4473 5.46264 15.1122 6.12811 15.413C6.09643 15.6029 6.08058 15.7929 6.08058 15.9987C6.08058 18.9748 9.55054 21.3968 13.8286 21.3968C18.1066 21.3968 21.5766 18.9906 21.5766 15.9987C21.5766 15.8087 21.5607 15.6029 21.529 15.413C22.1945 15.1122 22.6698 14.4315 22.6698 13.64ZM9.3921 15.0172C9.3921 14.2573 10.01 13.64 10.7706 13.64C11.5311 13.64 12.1491 14.2573 12.1491 15.0172C12.1491 15.7771 11.5311 16.3944 10.7706 16.3944C10.01 16.4103 9.3921 15.7771 9.3921 15.0172ZM17.1084 18.674C16.1577 19.6238 14.3514 19.6871 13.8286 19.6871C13.2899 19.6871 11.4836 19.608 10.5487 18.674C10.4061 18.5315 10.4061 18.3099 10.5487 18.1674C10.6913 18.0249 10.9132 18.0249 11.0558 18.1674C11.6579 18.769 12.9254 18.9748 13.8286 18.9748C14.7317 18.9748 16.0151 18.769 16.6014 18.1674C16.744 18.0249 16.9658 18.0249 17.1084 18.1674C17.2352 18.3099 17.2352 18.5315 17.1084 18.674ZM16.8549 16.4103C16.0943 16.4103 15.4764 15.7929 15.4764 15.033C15.4764 14.2732 16.0943 13.6558 16.8549 13.6558C17.6154 13.6558 18.2334 14.2732 18.2334 15.033C18.2334 15.7771 17.6154 16.4103 16.8549 16.4103Z" fill="white"/>
</svg>
