<svg width="1480" height="1838" viewBox="0 0 1480 1838" fill="none" xmlns="http://www.w3.org/2000/svg">
<path d="M1 901C225.625 838.667 680.05 759.2 700.75 940C721.45 1120.8 1226.88 991.333 1477 904" stroke="#DCDCDC" stroke-width="0.5"/>
<path d="M1 923.401C225.625 861.067 680.05 781.601 700.75 962.401C721.45 1143.2 1226.88 1013.73 1477 926.401" stroke="#DCDCDC" stroke-width="0.5"/>
<path d="M1 945.801C225.625 883.468 680.05 804.001 700.75 984.801C721.45 1165.6 1226.88 1036.13 1477 948.801" stroke="#DCDCDC" stroke-width="0.5"/>
<path d="M1 968.202C225.625 905.868 680.05 826.402 700.75 1007.2C721.45 1188 1226.88 1058.54 1477 971.202" stroke="#DCDCDC" stroke-width="0.5"/>
<path d="M1 990.602C225.625 928.269 680.05 848.802 700.75 1029.6C721.45 1210.4 1226.88 1080.94 1477 993.603" stroke="#DCDCDC" stroke-width="0.5"/>
<path d="M1 1013C225.625 950.67 680.05 871.203 700.75 1052C721.45 1232.8 1226.88 1103.34 1477 1016" stroke="#DCDCDC" stroke-width="0.5"/>
<path d="M1 1035.4C225.625 973.07 680.05 893.604 700.75 1074.4C721.45 1255.2 1226.88 1125.74 1477 1038.4" stroke="#DCDCDC" stroke-width="0.5"/>
<path d="M1 1057.8C225.625 995.471 680.05 916.004 700.75 1096.8C721.45 1277.6 1226.88 1148.14 1477 1060.8" stroke="#DCDCDC" stroke-width="0.5"/>
<path d="M1 1080.2C225.625 1017.87 680.05 938.405 700.75 1119.2C721.45 1300 1226.88 1170.54 1477 1083.21" stroke="#DCDCDC" stroke-width="0.5"/>
<path d="M1 1102.61C225.625 1040.27 680.05 960.806 700.75 1141.61C721.45 1322.41 1226.88 1192.94 1477 1105.61" stroke="#DCDCDC" stroke-width="0.5"/>
<path d="M1 1125.01C225.625 1062.67 680.05 983.206 700.75 1164.01C721.45 1344.81 1226.88 1215.34 1477 1128.01" stroke="#DCDCDC" stroke-width="0.5"/>
<path d="M1 1147.41C225.625 1085.07 680.05 1005.61 700.75 1186.41C721.45 1367.21 1226.88 1237.74 1477 1150.41" stroke="#DCDCDC" stroke-width="0.5"/>
<path d="M1 1169.81C225.625 1107.47 680.05 1028.01 700.75 1208.81C721.45 1389.61 1226.88 1260.14 1477 1172.81" stroke="#DCDCDC" stroke-width="0.5"/>
<path d="M1 1192.21C225.625 1129.87 680.05 1050.41 700.75 1231.21C721.45 1412.01 1226.88 1282.54 1477 1195.21" stroke="#DCDCDC" stroke-width="0.5"/>
<path d="M1 1214.61C225.625 1152.28 680.05 1072.81 700.75 1253.61C721.45 1434.41 1226.88 1304.94 1477 1217.61" stroke="#DCDCDC" stroke-width="0.5"/>
<path d="M1 1237.01C225.625 1174.68 680.05 1095.21 700.75 1276.01C721.45 1456.81 1226.88 1327.34 1477 1240.01" stroke="#DCDCDC" stroke-width="0.5"/>
<path d="M1 1259.41C225.625 1197.08 680.05 1117.61 700.75 1298.41C721.45 1479.21 1226.88 1349.74 1477 1262.41" stroke="#DCDCDC" stroke-width="0.5"/>
<path d="M1 1281.81C225.625 1219.48 680.05 1140.01 700.75 1320.81C721.45 1501.61 1226.88 1372.14 1477 1284.81" stroke="#DCDCDC" stroke-width="0.5"/>
<path d="M1 1304.21C225.625 1241.88 680.05 1162.41 700.75 1343.21C721.45 1524.01 1226.88 1394.54 1477 1307.21" stroke="#DCDCDC" stroke-width="0.5"/>
<path d="M1 1326.61C225.625 1264.28 680.05 1184.81 700.75 1365.61C721.45 1546.41 1226.88 1416.95 1477 1329.61" stroke="#DCDCDC" stroke-width="0.5"/>
<path d="M1 1349.01C225.625 1286.68 680.05 1207.21 700.75 1388.01C721.45 1568.81 1226.88 1439.35 1477 1352.01" stroke="#DCDCDC" stroke-width="0.5"/>
<path d="M1 1371.41C225.625 1309.08 680.05 1229.61 700.75 1410.41C721.45 1591.21 1226.88 1461.75 1477 1374.41" stroke="#DCDCDC" stroke-width="0.5"/>
<path d="M1 1393.81C225.625 1331.48 680.05 1252.01 700.75 1432.81C721.45 1613.61 1226.88 1484.15 1477 1396.81" stroke="#DCDCDC" stroke-width="0.5"/>
<path d="M1 1416.21C225.625 1353.88 680.05 1274.41 700.75 1455.21C721.45 1636.01 1226.88 1506.55 1477 1419.21" stroke="#DCDCDC" stroke-width="0.5"/>
<path d="M1 1438.62C225.625 1376.28 680.05 1296.82 700.75 1477.62C721.45 1658.42 1226.88 1528.95 1477 1441.62" stroke="#DCDCDC" stroke-width="0.5"/>
<path d="M1 1461.02C225.625 1398.68 680.05 1319.22 700.75 1500.02C721.45 1680.82 1226.88 1551.35 1477 1464.02" stroke="#DCDCDC" stroke-width="0.5"/>
<path d="M1 1483.42C225.625 1421.08 680.05 1341.62 700.75 1522.42C721.45 1703.22 1226.88 1573.75 1477 1486.42" stroke="#DCDCDC" stroke-width="0.5"/>
<path d="M1 1505.82C225.625 1443.48 680.05 1364.02 700.75 1544.82C721.45 1725.62 1226.88 1596.15 1477 1508.82" stroke="#DCDCDC" stroke-width="0.5"/>
<path d="M1 1528.22C225.625 1465.88 680.05 1386.42 700.75 1567.22C721.45 1748.02 1226.88 1618.55 1477 1531.22" stroke="#DCDCDC" stroke-width="0.5"/>
<path d="M1 1550.62C225.625 1488.28 680.05 1408.82 700.75 1589.62C721.45 1770.42 1226.88 1640.95 1477 1553.62" stroke="#DCDCDC" stroke-width="0.5"/>
<path d="M1 1573.02C225.625 1510.69 680.05 1431.22 700.75 1612.02C721.45 1792.82 1226.88 1663.35 1477 1576.02" stroke="#DCDCDC" stroke-width="0.5"/>
<path d="M1 1595.42C225.625 1533.09 680.05 1453.62 700.75 1634.42C721.45 1815.22 1226.88 1685.75 1477 1598.42" stroke="#DCDCDC" stroke-width="0.5"/>
<path d="M1 1617.82C225.625 1555.49 680.05 1476.02 700.75 1656.82C721.45 1837.62 1226.88 1708.15 1477 1620.82" stroke="#DCDCDC" stroke-width="0.5"/>
<path d="M1 1640.22C225.625 1577.89 680.05 1498.42 700.75 1679.22C721.45 1860.02 1226.88 1730.55 1477 1643.22" stroke="#DCDCDC" stroke-width="0.5"/>
<path d="M1 1662.62C225.625 1600.29 680.05 1520.82 700.75 1701.62C721.45 1882.42 1226.88 1752.96 1477 1665.62" stroke="#DCDCDC" stroke-width="0.5"/>
<path d="M1 1685.02C225.625 1622.69 680.05 1543.22 700.75 1724.02C721.45 1904.82 1226.88 1775.36 1477 1688.02" stroke="#DCDCDC" stroke-width="0.5"/>
<path d="M1 1707.42C225.625 1645.09 680.05 1565.62 700.75 1746.42C721.45 1927.22 1226.88 1797.76 1477 1710.42" stroke="#DCDCDC" stroke-width="0.5"/>
<path d="M3 72.9999C227.625 10.6666 682.05 -68.8001 702.75 112C723.45 292.8 1228.88 163.333 1479 76" stroke="#DCDCDC" stroke-width="0.5"/>
<path d="M3 95.4005C227.625 33.0672 682.05 -46.3995 702.75 134.401C723.45 315.201 1228.88 185.734 1479 98.4006" stroke="#DCDCDC" stroke-width="0.5"/>
<path d="M3 117.801C227.625 55.4678 682.05 -23.9988 702.75 156.801C723.45 337.601 1228.88 208.135 1479 120.801" stroke="#DCDCDC" stroke-width="0.5"/>
<path d="M3 140.202C227.625 77.8685 682.05 -1.5982 702.75 179.202C723.45 360.002 1228.88 230.535 1479 143.202" stroke="#DCDCDC" stroke-width="0.5"/>
<path d="M3 162.602C227.625 100.269 682.05 20.8024 702.75 201.602C723.45 382.402 1228.88 252.936 1479 165.603" stroke="#DCDCDC" stroke-width="0.5"/>
<path d="M3 185.003C227.625 122.67 682.05 43.2031 702.75 224.003C723.45 404.803 1228.88 275.336 1479 188.003" stroke="#DCDCDC" stroke-width="0.5"/>
<path d="M3 207.404C227.625 145.07 682.05 65.6037 702.75 246.404C723.45 427.204 1228.88 297.737 1479 210.404" stroke="#DCDCDC" stroke-width="0.5"/>
<path d="M3 229.804C227.625 167.471 682.05 88.0043 702.75 268.804C723.45 449.604 1228.88 320.138 1479 232.804" stroke="#DCDCDC" stroke-width="0.5"/>
<path d="M3 252.205C227.625 189.872 682.05 110.405 702.75 291.205C723.45 472.005 1228.88 342.538 1479 255.205" stroke="#DCDCDC" stroke-width="0.5"/>
<path d="M3 274.606C227.625 212.272 682.05 132.806 702.75 313.606C723.45 494.406 1228.88 364.939 1479 277.606" stroke="#DCDCDC" stroke-width="0.5"/>
<path d="M3 297.006C227.625 234.673 682.05 155.206 702.75 336.006C723.45 516.806 1228.88 387.34 1479 300.006" stroke="#DCDCDC" stroke-width="0.5"/>
<path d="M3 319.407C227.625 257.074 682.05 177.607 702.75 358.407C723.45 539.207 1228.88 409.74 1479 322.407" stroke="#DCDCDC" stroke-width="0.5"/>
<path d="M3 341.808C227.625 279.474 682.05 200.008 702.75 380.808C723.45 561.608 1228.88 432.141 1479 344.808" stroke="#DCDCDC" stroke-width="0.5"/>
<path d="M3 364.208C227.625 301.875 682.05 222.408 702.75 403.208C723.45 584.008 1228.88 454.542 1479 367.208" stroke="#DCDCDC" stroke-width="0.5"/>
<path d="M3 386.609C227.625 324.275 682.05 244.809 702.75 425.609C723.45 606.409 1228.88 476.942 1479 389.609" stroke="#DCDCDC" stroke-width="0.5"/>
<path d="M3 409.009C227.625 346.676 682.05 267.209 702.75 448.009C723.45 628.809 1228.88 499.343 1479 412.01" stroke="#DCDCDC" stroke-width="0.5"/>
<path d="M3 431.41C227.625 369.077 682.05 289.61 702.75 470.41C723.45 651.21 1228.88 521.743 1479 434.41" stroke="#DCDCDC" stroke-width="0.5"/>
<path d="M3 453.811C227.625 391.477 682.05 312.011 702.75 492.811C723.45 673.611 1228.88 544.144 1479 456.811" stroke="#DCDCDC" stroke-width="0.5"/>
<path d="M3 476.211C227.625 413.878 682.05 334.411 702.75 515.211C723.45 696.011 1228.88 566.545 1479 479.211" stroke="#DCDCDC" stroke-width="0.5"/>
<path d="M3 498.612C227.625 436.279 682.05 356.812 702.75 537.612C723.45 718.412 1228.88 588.945 1479 501.612" stroke="#DCDCDC" stroke-width="0.5"/>
<path d="M3 521.013C227.625 458.679 682.05 379.213 702.75 560.013C723.45 740.813 1228.88 611.346 1479 524.013" stroke="#DCDCDC" stroke-width="0.5"/>
<path d="M3 543.413C227.625 481.08 682.05 401.613 702.75 582.413C723.45 763.213 1228.88 633.747 1479 546.413" stroke="#DCDCDC" stroke-width="0.5"/>
<path d="M3 565.814C227.625 503.481 682.05 424.014 702.75 604.814C723.45 785.614 1228.88 656.147 1479 568.814" stroke="#DCDCDC" stroke-width="0.5"/>
<path d="M3 588.215C227.625 525.881 682.05 446.414 702.75 627.215C723.45 808.015 1228.88 678.548 1479 591.215" stroke="#DCDCDC" stroke-width="0.5"/>
<path d="M3 610.615C227.625 548.282 682.05 468.815 702.75 649.615C723.45 830.415 1228.88 700.949 1479 613.615" stroke="#DCDCDC" stroke-width="0.5"/>
<path d="M3 633.016C227.625 570.682 682.05 491.216 702.75 672.016C723.45 852.816 1228.88 723.349 1479 636.016" stroke="#DCDCDC" stroke-width="0.5"/>
<path d="M3 655.417C227.625 593.083 682.05 513.617 702.75 694.417C723.45 875.217 1228.88 745.75 1479 658.417" stroke="#DCDCDC" stroke-width="0.5"/>
<path d="M3 677.817C227.625 615.484 682.05 536.017 702.75 716.817C723.45 897.617 1228.88 768.15 1479 680.817" stroke="#DCDCDC" stroke-width="0.5"/>
<path d="M3 700.218C227.625 637.884 682.05 558.418 702.75 739.218C723.45 920.018 1228.88 790.551 1479 703.218" stroke="#DCDCDC" stroke-width="0.5"/>
<path d="M3 722.618C227.625 660.285 682.05 580.818 702.75 761.618C723.45 942.418 1228.88 812.952 1479 725.618" stroke="#DCDCDC" stroke-width="0.5"/>
<path d="M3 745.019C227.625 682.686 682.05 603.219 702.75 784.019C723.45 964.819 1228.88 835.352 1479 748.019" stroke="#DCDCDC" stroke-width="0.5"/>
<path d="M3 767.42C227.625 705.086 682.05 625.62 702.75 806.42C723.45 987.22 1228.88 857.753 1479 770.42" stroke="#DCDCDC" stroke-width="0.5"/>
<path d="M3 789.82C227.625 727.487 682.05 648.02 702.75 828.82C723.45 1009.62 1228.88 880.154 1479 792.821" stroke="#DCDCDC" stroke-width="0.5"/>
<path d="M3 812.221C227.625 749.888 682.05 670.421 702.75 851.221C723.45 1032.02 1228.88 902.554 1479 815.221" stroke="#DCDCDC" stroke-width="0.5"/>
<path d="M3 834.622C227.625 772.288 682.05 692.822 702.75 873.622C723.45 1054.42 1228.88 924.955 1479 837.622" stroke="#DCDCDC" stroke-width="0.5"/>
<path d="M3 857.022C227.625 794.689 682.05 715.222 702.75 896.022C723.45 1076.82 1228.88 947.356 1479 860.022" stroke="#DCDCDC" stroke-width="0.5"/>
<path d="M3 879.423C227.625 817.089 682.05 737.623 702.75 918.423C723.45 1099.22 1228.88 969.756 1479 882.423" stroke="#DCDCDC" stroke-width="0.5"/>
</svg>
