<svg width="103" height="80" viewBox="0 0 103 80" fill="none" xmlns="http://www.w3.org/2000/svg">
<path d="M99.0426 13.9468L99.5347 15.9935L98.2764 16.297L99.0426 13.9468Z" fill="url(#paint0_linear_25_4351)"/>
<path d="M102.976 16.8992L101.752 11.8878C101.715 11.741 101.622 11.6146 101.493 11.5362C101.364 11.4577 101.209 11.4336 101.062 11.4691L96.0502 12.6932C95.9776 12.7112 95.9093 12.7434 95.8492 12.7879C95.7891 12.8324 95.7384 12.8883 95.6999 12.9525C95.6615 13.0166 95.6361 13.0877 95.6252 13.1617C95.6143 13.2357 95.6181 13.3111 95.6365 13.3836L96.8605 18.395C96.897 18.5417 96.9902 18.6679 97.1196 18.746C97.2491 18.824 97.4042 18.8475 97.5509 18.8112L102.562 17.5871C102.707 17.549 102.832 17.4557 102.909 17.3272C102.986 17.1987 103.01 17.0452 102.976 16.8992ZM99.3038 17.1122L99.2867 17.0534C99.4169 17.0236 99.5343 16.9534 99.6221 16.8527C99.6543 16.7985 99.672 16.7369 99.6735 16.674C99.6684 16.5706 99.6528 16.4681 99.627 16.3679L99.5633 16.1011L98.1679 16.4365L98.1507 16.3753L99.201 13.1143L99.3234 13.0849L99.9967 15.8905C100.086 15.8727 100.173 15.8439 100.256 15.8049C100.306 15.7738 100.346 15.7287 100.371 15.6751C100.391 15.6311 100.403 15.5838 100.405 15.5356C100.407 15.4732 100.402 15.4109 100.391 15.3495V15.2858L100.45 15.2711L100.694 16.3312L100.636 16.3459C100.614 16.2611 100.582 16.179 100.543 16.1011C100.518 16.0555 100.483 16.0167 100.44 15.9885C100.397 15.9625 100.348 15.9474 100.298 15.9444C100.226 15.9449 100.154 15.9547 100.085 15.9738L100.024 15.9885L100.092 16.27C100.11 16.3553 100.14 16.4376 100.18 16.5148C100.21 16.5722 100.253 16.6217 100.305 16.6593C100.349 16.6958 100.403 16.7188 100.459 16.7254C100.541 16.7361 100.623 16.7361 100.704 16.7254L100.721 16.7841L99.3038 17.1122Z" fill="url(#paint1_linear_25_4351)"/>
<path d="M97.9598 35.6351L95.3403 25.0271C95.3055 24.9106 95.2285 24.8112 95.1244 24.7483C95.0203 24.6854 94.8966 24.6635 94.7772 24.6868L84.1717 27.3015C84.0538 27.3333 83.9526 27.4092 83.8893 27.5136C83.8259 27.618 83.8052 27.7428 83.8314 27.8621L86.4534 38.4627C86.4677 38.5222 86.4937 38.5783 86.5299 38.6277C86.566 38.677 86.6116 38.7188 86.6639 38.7504C86.7163 38.782 86.7744 38.803 86.8349 38.812C86.8955 38.8211 86.9572 38.818 87.0165 38.803L97.622 36.1982C97.7381 36.1628 97.8369 36.0857 97.8993 35.9817C97.9617 35.8776 97.9833 35.7541 97.9598 35.6351ZM91.6264 34.9765L91.5946 35.2801C91.5895 35.4187 91.5508 35.5539 91.482 35.6743C91.4122 35.7708 91.311 35.8401 91.1957 35.87C91.0804 35.9 90.9583 35.8887 90.8503 35.8383C90.7968 35.8171 90.7487 35.7841 90.7097 35.7417C90.6707 35.6993 90.6417 35.6486 90.6251 35.5935C90.591 35.4378 90.591 35.2766 90.6251 35.121L90.679 34.8762L91.9667 28.4252L89.5626 29.1425C89.4063 29.1836 89.2539 29.2385 89.1072 29.3065C89.0152 29.3556 88.9324 29.4202 88.8624 29.4975C88.7755 29.6053 88.7091 29.7281 88.6666 29.8598C88.6146 30.0759 88.5762 30.2951 88.5515 30.5159V30.5918L88.4413 30.6237L88.2871 28.2734L88.3973 28.2416C88.4634 28.3591 88.5221 28.4179 88.5907 28.4374C88.7166 28.444 88.8426 28.4239 88.9603 28.3787L92.2923 27.3676L91.6264 34.9765Z" fill="url(#paint2_linear_25_4351)"/>
<path d="M90.8607 9.12386L89.213 2.42564C89.1563 2.19894 89.0123 2.00383 88.8124 1.88278C88.6124 1.76174 88.3728 1.72455 88.1456 1.77932L81.4523 3.42695C81.2254 3.48426 81.0303 3.62875 80.9093 3.82905C80.7883 4.02935 80.7512 4.2693 80.806 4.4968L82.4536 11.1926C82.5104 11.4193 82.6544 11.6144 82.8543 11.7354C83.0542 11.8565 83.2938 11.8937 83.521 11.8389L90.2143 10.1864C90.3266 10.1591 90.4323 10.11 90.5256 10.0418C90.6188 9.97364 90.6977 9.88776 90.7577 9.78908C90.8177 9.6904 90.8577 9.58085 90.8754 9.46671C90.8931 9.35257 90.8881 9.23607 90.8607 9.12386ZM84.6349 10.2672L84.6129 10.1839C84.8969 9.77752 85.1711 9.3393 85.4379 8.86435C85.6814 8.43225 85.902 7.98771 86.099 7.53254C86.3119 7.06598 86.4759 6.57865 86.5886 6.07833C86.6624 5.7313 86.6624 5.37264 86.5886 5.02561C86.5067 4.63167 86.2738 4.28544 85.9398 4.06102C85.8118 3.97227 85.6664 3.91157 85.5132 3.88288C85.3601 3.8542 85.2026 3.85817 85.0511 3.89455C84.7904 3.95168 84.5596 4.10235 84.4024 4.31808C84.2879 4.46448 84.2114 4.63688 84.1796 4.81996C84.1472 5.01962 84.1563 5.22382 84.2065 5.41976C84.2379 5.57703 84.3018 5.726 84.3941 5.85712C84.4864 5.98823 84.6052 6.09861 84.7427 6.18115C84.8619 6.25176 84.9917 6.303 85.127 6.33293C85.2528 6.36117 85.3832 6.36117 85.5089 6.33293L85.6093 6.30845L85.6509 6.37455C85.5062 6.51238 85.3309 6.6139 85.1393 6.67078C85.0152 6.70078 84.8863 6.70584 84.7603 6.68567C84.6342 6.66549 84.5134 6.62049 84.4048 6.55327C84.2553 6.47019 84.1278 6.35269 84.0327 6.21053C83.9288 6.06278 83.8541 5.89661 83.8124 5.72089C83.7552 5.5135 83.7452 5.29598 83.7828 5.0842C83.8205 4.87242 83.9051 4.67174 84.0302 4.4968C84.3091 4.11736 84.7193 3.85549 85.1809 3.76235C85.4359 3.69332 85.7015 3.67175 85.9643 3.6987C86.2066 3.72832 86.4392 3.81198 86.6449 3.94351C86.8254 4.06565 86.9801 4.22203 87.1003 4.40377C87.2243 4.58946 87.3138 4.79595 87.3647 5.01337C87.4655 5.50009 87.4177 6.00589 87.2276 6.46514C87.1214 6.73459 86.992 6.99427 86.8408 7.24121C86.6816 7.50561 86.4515 7.83856 86.1553 8.23762C85.7709 8.74684 85.4991 9.12141 85.3351 9.35644L86.9117 8.98186C87.1026 8.94448 87.2884 8.88449 87.465 8.80315C87.5989 8.73041 87.7099 8.62192 87.7857 8.48978C87.8761 8.31113 87.9254 8.11459 87.9302 7.91446H88.0306V9.44947L84.6349 10.2672Z" fill="url(#paint3_linear_25_4351)"/>
<path d="M40.4499 0.28833C32.5801 0.287846 24.8868 2.62109 18.343 6.993C11.7992 11.3649 6.6988 17.5791 3.6868 24.8498C0.674793 32.1205 -0.113534 40.1211 1.4215 47.8398C2.95654 55.5585 6.746 62.6486 12.3107 68.2137C17.8753 73.7787 24.9653 77.5686 32.6839 79.1041C40.4025 80.6396 48.4031 79.8518 55.674 76.8402C62.9449 73.8286 69.1594 68.7286 73.5317 62.1851C77.904 55.6416 80.2377 47.9484 80.2377 40.0786C80.2371 29.5262 76.045 19.4061 68.5836 11.9442C61.1221 4.4823 51.0023 0.289629 40.4499 0.28833ZM64.1973 59.3164C63.0842 61.8724 61.393 64.1351 59.2568 65.9264C57.0535 67.792 54.3605 69.2241 51.1485 70.2499C47.9365 71.2757 44.2324 71.7849 40.0509 71.7849C37.9458 71.782 35.8455 71.5862 33.7762 71.1998C31.7216 70.8124 29.6975 70.2782 27.7194 69.6012C25.8495 68.9674 24.0397 68.1686 22.3114 67.2142C20.787 66.3756 19.3586 65.3733 18.0516 64.225L22.3114 57.4729C22.7806 56.7273 23.4052 56.0918 24.1426 55.6098C24.8477 55.1569 25.7731 54.9366 26.9213 54.9366C27.9226 54.9192 28.9113 55.1621 29.7906 55.6416C30.6376 56.1166 31.5533 56.6209 32.5472 57.1767C33.6549 57.7905 34.814 58.3066 36.0114 58.719C37.3236 59.194 38.9884 59.4265 41.0081 59.4265C42.2251 59.4541 43.4397 59.3056 44.6143 58.9859C45.4823 58.7492 46.2907 58.3321 46.9866 57.7618C47.5285 57.3166 47.9637 56.7556 48.2602 56.1201C48.5568 55.4846 48.7072 54.7908 48.7003 54.0895C48.72 53.5278 48.6211 52.9683 48.4102 52.4474C48.1993 51.9265 47.8811 51.4558 47.4762 51.066C46.5172 50.1978 45.4114 49.5072 44.2103 49.0267C42.7185 48.4005 41.1896 47.8666 39.6322 47.428C37.9104 46.9384 36.164 46.3753 34.3931 45.7388C32.5984 45.0983 30.8482 44.3393 29.154 43.4669C27.4605 42.5884 25.9156 41.4491 24.5759 40.0908C23.1775 38.6521 22.0725 36.9549 21.3223 35.0941C20.4826 33.1208 20.0737 30.7363 20.0737 27.9356C20.0656 25.3873 20.577 22.864 21.5769 20.5201C22.6042 18.1494 24.1493 16.0389 26.0987 14.3433C28.1062 12.5659 30.636 11.1542 33.6881 10.108C36.7401 9.06178 40.2884 8.53951 44.3328 8.54114C46.4864 8.53629 48.6358 8.73548 50.7519 9.13605C52.736 9.51433 54.682 10.0707 56.5663 10.7984C58.3008 11.4674 59.9634 12.3097 61.5288 13.3126C62.9601 14.2251 64.2911 15.2862 65.4997 16.4781L61.3525 22.9315C60.982 23.5767 60.4645 24.1253 59.842 24.5326C59.2171 24.8631 58.5164 25.0235 57.81 24.9978C56.9125 24.9957 56.0256 24.8038 55.2076 24.4347C54.3458 24.0691 53.4081 23.6611 52.3946 23.2106C51.2855 22.7462 50.151 22.3448 48.9965 22.0086C47.5898 21.6146 46.1338 21.4249 44.673 21.4455C42.3448 21.4455 40.5699 21.8886 39.3238 22.77C38.7256 23.1781 38.2407 23.7313 37.9144 24.3778C37.5882 25.0243 37.4312 25.743 37.4583 26.4667C37.4464 27.0009 37.5496 27.5314 37.7608 28.0223C37.972 28.5131 38.2863 28.9528 38.6824 29.3115C39.6349 30.1514 40.7236 30.8229 41.9017 31.297C43.3896 31.92 44.9106 32.4611 46.4578 32.9177C48.1568 33.4367 49.8926 34.0079 51.665 34.6314C53.4454 35.2613 55.1846 36.0021 56.8723 36.8494C58.5318 37.6728 60.0659 38.7279 61.4284 39.9831C62.7945 41.2652 63.8929 42.8054 64.66 44.5147C65.4654 46.2798 65.8841 48.4318 65.8841 50.902C65.9047 53.7928 65.3306 56.6569 64.1973 59.3164Z" fill="url(#paint4_linear_25_4351)"/>
<defs>
<linearGradient id="paint0_linear_25_4351" x1="104.116" y1="7.08171" x2="95.3101" y2="21.4811" gradientUnits="userSpaceOnUse">
<stop stop-color="#1FC3F3"/>
<stop offset="0.52" stop-color="#0074BB"/>
<stop offset="1" stop-color="#223C8C"/>
</linearGradient>
<linearGradient id="paint1_linear_25_4351" x1="117.092" y1="-13.9412" x2="86.1846" y2="36.5979" gradientUnits="userSpaceOnUse">
<stop stop-color="#1FC3F3"/>
<stop offset="0.52" stop-color="#0074BB"/>
<stop offset="1" stop-color="#223C8C"/>
</linearGradient>
<linearGradient id="paint2_linear_25_4351" x1="138.127" y1="-45.4831" x2="22.4976" y2="143.593" gradientUnits="userSpaceOnUse">
<stop stop-color="#1FC3F3"/>
<stop offset="0.52" stop-color="#0074BB"/>
<stop offset="1" stop-color="#223C8C"/>
</linearGradient>
<linearGradient id="paint3_linear_25_4351" x1="108.406" y1="-30.0974" x2="48.4626" y2="67.921" gradientUnits="userSpaceOnUse">
<stop stop-color="#1FC3F3"/>
<stop offset="0.52" stop-color="#0074BB"/>
<stop offset="1" stop-color="#223C8C"/>
</linearGradient>
<linearGradient id="paint4_linear_25_4351" x1="92.6745" y1="36.7197" x2="5.68825" y2="42.3138" gradientUnits="userSpaceOnUse">
<stop stop-color="#1FC3F3"/>
<stop offset="0.52" stop-color="#0074BB"/>
<stop offset="1" stop-color="#223C8C"/>
</linearGradient>
</defs>
</svg>
