<svg width="26" height="26" viewBox="0 0 26 26" fill="none" xmlns="http://www.w3.org/2000/svg">
<path d="M24.6243 3.50973C24.504 3.40585 24.3577 3.33677 24.201 3.30992C24.0444 3.28307 23.8833 3.29947 23.7353 3.35736L4.06645 11.0547C3.7877 11.1631 3.5517 11.3591 3.39399 11.6132C3.23628 11.8673 3.16539 12.1658 3.192 12.4637C3.2186 12.7616 3.34126 13.0428 3.5415 13.265C3.74175 13.4871 4.00874 13.6382 4.30229 13.6955L9.39857 14.6961V20.3786C9.39757 20.6881 9.48955 20.9908 9.6626 21.2474C9.83565 21.5041 10.0818 21.7028 10.3691 21.8179C10.656 21.9351 10.9715 21.9632 11.2746 21.8986C11.5776 21.8341 11.8543 21.6798 12.0685 21.4559L14.5259 18.9073L18.4246 22.3197C18.7058 22.5692 19.0686 22.7072 19.4446 22.7079C19.6093 22.7078 19.7731 22.6819 19.9299 22.6312C20.186 22.5499 20.4164 22.403 20.5981 22.2049C20.7798 22.0069 20.9064 21.7647 20.9654 21.5025L24.9048 4.36477C24.9401 4.21022 24.9326 4.04898 24.8832 3.89835C24.8337 3.74773 24.7443 3.61339 24.6243 3.50973ZM18.6905 7.00366L9.99545 13.2306L5.1816 12.2863L18.6905 7.00366ZM10.9514 20.3786V15.7705L13.3574 17.8804L10.9514 20.3786ZM19.4465 21.155L11.4221 14.1187L22.9715 5.84096L19.4465 21.155Z" fill="black"/>
</svg>
