<svg width="108" height="28" viewBox="0 0 108 28" fill="none" xmlns="http://www.w3.org/2000/svg">
<path d="M16.6462 8.87068C15.8785 8.87068 15.2584 8.25162 15.2584 7.45567C15.2584 6.65973 15.8785 6.04066 16.6462 6.04066C17.414 6.04066 18.0341 6.65973 18.0341 7.45567C18.0341 8.25162 17.414 8.87068 16.6462 8.87068ZM8.79162 8.87068C8.02387 8.87068 7.40377 8.25162 7.40377 7.45567C7.40377 6.65973 8.02387 6.04066 8.79162 6.04066C9.55936 6.04066 10.1795 6.65973 10.1795 7.45567C10.1795 8.25162 9.55936 8.87068 8.79162 8.87068ZM12.7189 0.734375C6.22263 0.734375 0.937012 5.15628 0.937012 10.61C0.937012 13.5874 2.53156 16.27 5.01196 18.0682C5.21866 18.2156 5.33677 18.4515 5.33677 18.7168C5.33677 18.8052 5.30724 18.8937 5.30724 18.9821C5.10054 19.7191 4.80526 20.9277 4.77573 20.9867C4.7462 21.0751 4.71667 21.1636 4.71667 21.2815C4.71667 21.4879 4.89384 21.6647 5.10054 21.6647C5.18913 21.6647 5.24819 21.6353 5.33677 21.6058L7.90576 20.1023C8.11246 19.9844 8.31916 19.9254 8.52586 19.9254C8.64397 19.9254 8.76209 19.9549 8.8802 19.9844C10.0909 20.3382 11.3901 20.515 12.7189 20.515C12.9256 20.515 13.1618 20.515 13.3685 20.4856C13.1028 19.7191 12.9847 18.8937 12.9847 18.0682C12.9847 13.0862 17.7978 9.04756 23.7331 9.04756C23.9398 9.04756 23.9988 9.04756 24.2055 9.07704C23.3197 4.33086 18.5951 0.734375 12.7189 0.734375Z" fill="#5E5E5E"/>
<path d="M27.0108 16.6535C26.3317 16.6535 25.7706 16.0934 25.7706 15.4154C25.7706 14.7373 26.3317 14.1772 27.0108 14.1772C27.69 14.1772 28.251 14.7373 28.251 15.4154C28.251 16.0934 27.6605 16.6535 27.0108 16.6535ZM20.4555 16.6535C19.7763 16.6535 19.2153 16.0934 19.2153 15.4154C19.2153 14.7373 19.7763 14.1772 20.4555 14.1772C21.1346 14.1772 21.6957 14.7373 21.6957 15.4154C21.6957 16.0934 21.1346 16.6535 20.4555 16.6535ZM30.1409 24.2886C32.2079 22.7852 33.5366 20.5448 33.5366 18.0685C33.5366 13.5287 29.1369 9.84375 23.7036 9.84375C18.2704 9.84375 13.8706 13.5287 13.8706 18.0685C13.8706 22.6083 18.2704 26.2932 23.7036 26.2932C24.8257 26.2932 25.9183 26.1458 26.9222 25.8511C27.0108 25.8216 27.0994 25.8216 27.2175 25.8216C27.3947 25.8216 27.5719 25.8805 27.749 25.969L29.9046 27.2071C29.9637 27.2366 30.0227 27.2661 30.0818 27.2661C30.259 27.2661 30.4066 27.1187 30.4066 26.9418C30.4066 26.8534 30.3771 26.7649 30.3476 26.706C30.3476 26.647 30.0818 25.6742 29.9046 25.0551C29.9046 24.9667 29.8751 24.9077 29.8751 24.8193C29.8751 24.6129 29.9932 24.4066 30.1409 24.2886Z" fill="#5E5E5E"/>
<path d="M44.4328 21.1341L40.8008 6.83661H42.7497L44.4623 14.0591C44.8757 15.8573 45.2596 17.6261 45.5254 19.0116H45.5549C45.7911 17.5966 46.234 15.8868 46.736 14.0591L48.6554 6.83661H50.5747L52.3169 14.0885C52.7303 15.7983 53.1142 17.4787 53.3209 18.9821H53.3504C53.6457 17.4197 54.0591 15.8278 54.502 14.0296L56.3919 6.80713H58.2817L54.2363 21.1046H52.3169L50.4862 13.7053C50.0432 11.8481 49.7479 10.4626 49.5412 9.01808H49.5117C49.2755 10.4626 48.9507 11.8481 48.4192 13.6758L46.3817 21.1341H44.4328Z" fill="#5E5E5E"/>
<path d="M59.9057 16.3286C59.9353 18.8343 61.5298 19.8661 63.4196 19.8661C64.7484 19.8661 65.5752 19.6302 66.2544 19.3355L66.6087 20.662C65.9591 20.9568 64.8075 21.3106 63.1539 21.3106C60.0238 21.3106 58.1045 19.2175 58.1045 16.1222C58.1045 13.0269 59.9648 10.5801 62.9472 10.5801C66.3134 10.5801 67.1698 13.528 67.1698 15.4147C67.1698 15.7979 67.1402 16.0632 67.1107 16.2696H59.9057V16.3286ZM65.3685 15.002C65.3981 13.8228 64.8665 11.9656 62.7995 11.9656C60.8802 11.9656 60.0829 13.7049 59.9353 15.002H65.3685Z" fill="#5E5E5E"/>
<path d="M79.6898 20.6624C79.0401 21.0161 77.6228 21.3699 75.8806 21.3699C71.8352 21.3699 68.8232 18.8347 68.8232 14.1474C68.8232 9.66656 71.8647 6.65967 76.294 6.65967C78.0657 6.65967 79.1583 7.01342 79.6307 7.24926L79.2173 8.78218C78.5382 8.42843 77.5342 8.1926 76.353 8.1926C72.9868 8.1926 70.7721 10.3446 70.7721 14.059C70.7721 17.567 72.7801 19.778 76.2645 19.778C77.4161 19.778 78.5677 19.5422 79.3059 19.1884L79.6898 20.6624Z" fill="#5E5E5E"/>
<path d="M81.4619 6.86621H83.3222V12.4673H83.3517C83.647 11.9367 84.1195 11.4355 84.6805 11.1407C85.2416 10.787 85.8912 10.6101 86.5999 10.6101C87.9877 10.6101 90.2024 11.465 90.2024 15.0025V21.1048H88.3421V15.2089C88.3421 13.558 87.722 12.1725 85.9503 12.1725C84.7396 12.1725 83.7947 13.0274 83.4403 14.0297C83.3222 14.295 83.3222 14.5603 83.3222 14.9141V21.1048H81.4619V6.86621Z" fill="#5E5E5E"/>
<path d="M99.8286 18.687C99.8286 19.5714 99.8582 20.4558 99.9763 21.1338H98.2932L98.116 19.8367H98.0569C97.4959 20.6327 96.3738 21.3697 94.9269 21.3697C92.8304 21.3697 91.7969 19.8957 91.7969 18.4217C91.7969 15.9454 94.0115 14.5894 97.9683 14.6189V14.4125C97.9683 13.5576 97.7321 12.0247 95.6356 12.0247C94.6611 12.0247 93.6572 12.29 92.9485 12.7912L92.5941 11.4941C93.3914 10.9929 94.6316 10.6392 95.9309 10.6392C99.0904 10.6392 99.8582 12.7912 99.8582 14.8252V18.687H99.8286ZM97.9979 15.8865C95.9604 15.857 93.6572 16.2108 93.6572 18.1859C93.6572 19.424 94.4544 19.9546 95.3994 19.9546C96.7577 19.9546 97.6435 19.0997 97.9388 18.2448C97.9979 18.068 98.0274 17.8321 98.0274 17.6553V15.8865H97.9979Z" fill="#5E5E5E"/>
<path d="M104.317 8.98828V10.875H107.004V12.29H104.317V17.8026C104.317 19.0702 104.671 19.8072 105.705 19.8072C106.207 19.8072 106.502 19.7777 106.679 19.7188L107.063 21.0748C106.708 21.2517 105.941 21.3696 105.232 21.3696C104.376 21.3696 103.667 21.0748 103.224 20.5737C102.722 20.0136 102.515 19.0997 102.515 17.8911V12.29H100.921V10.875H102.515V8.98828H104.317Z" fill="#5E5E5E"/>
</svg>
